<?xml version="1.0" encoding="UTF-8" standalone="no"?>
<!-- Created with Inkscape (http://www.inkscape.org/) -->

<svg
   width="21mm"
   height="20mm"
   viewBox="0 0 21 20"
   version="1.1"
   id="svg2655"
   xml:space="preserve"
   sodipodi:docname="ctu-white.svg"
   inkscape:version="1.2.2 (732a01da63, 2022-12-09, custom)"
   xmlns:inkscape="http://www.inkscape.org/namespaces/inkscape"
   xmlns:sodipodi="http://sodipodi.sourceforge.net/DTD/sodipodi-0.dtd"
   xmlns="http://www.w3.org/2000/svg"
   xmlns:svg="http://www.w3.org/2000/svg"><sodipodi:namedview
     id="namedview24950"
     pagecolor="#ffffff"
     bordercolor="#000000"
     borderopacity="0.25"
     inkscape:showpageshadow="2"
     inkscape:pageopacity="0.0"
     inkscape:pagecheckerboard="0"
     inkscape:deskcolor="#d1d1d1"
     inkscape:document-units="mm"
     showgrid="false"
     inkscape:zoom="1.7396354"
     inkscape:cx="145.14536"
     inkscape:cy="168.4261"
     inkscape:window-width="1920"
     inkscape:window-height="960"
     inkscape:window-x="0"
     inkscape:window-y="0"
     inkscape:window-maximized="1"
     inkscape:current-layer="svg2655" /><defs
     id="defs2652"><clipPath
       clipPathUnits="userSpaceOnUse"
       id="clipPath487"><path
         d="M 0.03,841.02 H 595.05 V 0 H 0.03 Z"
         id="path485" /></clipPath><clipPath
       clipPathUnits="userSpaceOnUse"
       id="clipPath7756"><g
         id="g7760"
         style="stroke-width:0.999999"><path
           d="m 222.79855,46.895811 h 36.24686 v 52.281665 h -36.24686 z"
           id="path7758"
           style="stroke-width:0.999999" /></g></clipPath><clipPath
       clipPathUnits="userSpaceOnUse"
       id="clipPath7767"><g
         id="g7771"
         style="stroke-width:0.999999"><path
           d="m 222.79855,46.895811 h 36.24686 v 52.281665 h -36.24686 z"
           id="path7769"
           style="stroke-width:0.999999" /></g></clipPath><clipPath
       clipPathUnits="userSpaceOnUse"
       id="clipPath7779"><g
         id="g7783"
         style="stroke-width:0.352777"
         transform="matrix(2.8346458,0,0,-2.8346458,-208.23497,664.39501)"><path
           d="M 73.460667,-62.302315 H 283.36344 V 234.38379 H 73.460667 Z"
           id="path7781"
           style="stroke-width:0.352777" /></g></clipPath><clipPath
       clipPathUnits="userSpaceOnUse"
       id="clipPath7791"><g
         id="g7795"
         style="stroke-width:0.999999"><path
           d="m 222.79855,46.895811 h 36.24686 v 52.281665 h -36.24686 z"
           id="path7793"
           style="stroke-width:0.999999" /></g></clipPath><clipPath
       clipPathUnits="userSpaceOnUse"
       id="clipPath7797"><g
         id="g7801"
         style="stroke-width:0.999999"><path
           d="m 222.79855,46.895811 h 36.24686 v 52.281665 h -36.24686 z"
           id="path7799"
           style="stroke-width:0.999999" /></g></clipPath></defs><path
     style="fill:#ffffff;fill-opacity:1;stroke-width:0.50343"
     d="M 4.9961471,15.003081 0,10.006159 V 9.996919 9.987679 L 4.9938328,4.9938366 9.9876661,0 h 0.015637 0.01563 l 4.993903,4.9937651 4.993905,4.9937651 v 0.00832 0.00832 l -4.993396,4.993302 -4.993398,4.993301 -0.01384,0.0046 L 9.99227,20 Z M 14.60194,14.594132 19.177048,10.019047 V 9.9955614 9.9720763 L 14.601961,5.3969741 10.026876,0.82186922 h -0.02347 -0.02347 L 5.404805,5.3969544 0.82969727,9.97204 v 0.023486 0.023485 l 4.57508603,4.575105 4.5750861,4.575105 h 0.02347 0.02347 z M 5.5847877,14.414027 1.1897587,10.018895 V 9.995545 9.972196 L 5.5847877,5.5770599 9.9798166,1.1819286 h 0.02347 0.02347 l 4.395099,4.3950966 4.395097,4.3950979 v 0.023385 0.023384 l -4.395029,4.395132 -4.395029,4.395133 h -0.02354 -0.023541 z m 6.3676033,1.969814 0.105622,-0.05199 0.0903,-0.0903 0.09031,-0.09031 0.06039,-0.122202 0.0604,-0.122203 -3.65e-4,-0.12605 -1.84e-4,-0.12605 -0.03474,-0.06547 -0.03474,-0.06547 -0.0164,-0.01011 -0.0164,-0.01011 -0.134233,0.113962 -0.134232,0.113964 -0.0067,0.01747 -0.0067,0.01747 0.02394,0.04593 0.02394,0.04593 9.4e-5,0.03572 9.1e-5,0.03573 -0.02227,0.05325 -0.02227,0.05326 -0.04742,0.02452 -0.04742,0.02452 -0.04383,-3.52e-4 -0.04382,-3.52e-4 -0.06364,-0.02891 -0.06364,-0.02891 -0.0589,-0.05172 -0.0589,-0.05172 -0.0456,-0.07949 -0.0456,-0.07949 -1.43e-4,-0.08006 -1.39e-4,-0.08005 0.04089,-0.04089 0.0409,-0.04089 0.05478,-0.01022 0.05478,-0.01022 0.05359,0.02554 0.05358,0.02556 h 0.02168 0.02168 l 0.104167,-0.113496 0.104167,-0.113497 0.01509,-0.0274 0.01508,-0.02739 -0.07303,-0.04631 -0.07303,-0.04631 -0.06841,-0.01022 -0.06841,-0.01022 -0.07436,0.01089 -0.07437,0.01089 -0.09393,0.04498 -0.09392,0.04498 -0.08204,0.06787 -0.08204,0.06787 -0.04052,0.05412 -0.04052,0.05411 -0.04021,0.07828 -0.04021,0.07828 -0.0077,0.106311 -0.0077,0.106311 0.02636,0.09737 0.02636,0.09737 0.07461,0.101589 0.07461,0.101588 0.08684,0.0598 0.08685,0.0598 0.0609,0.02261 0.0609,0.02261 0.135049,-0.0049 0.135052,-0.0049 0.105611,-0.05199 z m -3.3812046,-0.223762 0.071506,-0.03473 -0.00453,-0.02709 -0.00453,-0.02709 -0.1173973,-0.134942 -0.1173932,-0.134945 -0.039152,0.01045 -0.039152,0.01044 -0.070448,0.0076 -0.070445,0.0076 -0.054792,-0.03687 -0.054792,-0.03687 -0.020576,-0.06455 -0.020575,-0.06454 0.017867,-0.06633 0.017867,-0.06633 0.080882,-0.08552 0.080887,-0.08552 0.062726,-0.03247 0.062726,-0.03248 0.081857,-0.0011 0.081857,-0.0011 0.048456,0.04842 0.048455,0.04842 0.00842,0.06289 0.00842,0.06289 -0.028373,0.05977 -0.028373,0.05977 0.1381096,0.130266 0.138113,0.130267 h 0.028228 0.028228 l 0.042017,-0.08587 0.042011,-0.08587 -0.00582,-0.114875 -0.00582,-0.114875 -0.059753,-0.120904 -0.059753,-0.120903 -0.094416,-0.100933 -0.094419,-0.100934 -0.089922,-0.05462 -0.089923,-0.05462 -0.099808,-0.02557 -0.099809,-0.02557 -0.078612,0.0082 -0.078613,0.0082 -0.088265,0.03318 -0.08826,0.03318 -0.1000455,0.09167 -0.1000423,0.09168 -0.046512,0.0918 -0.046518,0.0918 v 0.149532 0.149532 l 0.061162,0.124427 0.061159,0.124426 0.1049055,0.103577 0.1049011,0.103589 0.1292742,0.0647 0.1292784,0.06471 h 0.123006 0.1230065 z m 4.1870866,-0.551977 0.116291,-0.117073 -0.05334,-0.110278 -0.05334,-0.110278 0.124152,-0.124884 0.124152,-0.124885 h 0.02827 0.02827 l 0.07723,0.03913 0.07723,0.03913 h 0.01977 0.01977 l 0.137289,-0.136653 0.137289,-0.136654 v -0.02055 -0.02055 l -0.09784,-0.04414 -0.09785,-0.04414 -0.458245,-0.213509 -0.458249,-0.213509 h -0.01743 -0.01743 l -0.146615,0.143776 -0.14661,0.143777 v 0.02556 0.02556 l 0.251518,0.546134 0.251516,0.546134 0.0078,0.01248 0.0078,0.01248 h 0.0112 0.01121 z m -0.195179,-0.727929 -0.06089,-0.124884 0.01117,-0.01114 0.01113,-0.01114 0.124885,0.06089 0.124883,0.06089 v 0.0251 0.0251 l -0.05162,0.05003 -0.05162,0.05003 h -0.02351 -0.0235 z m 0.809874,-2.767276 3.330631,-3.3304938 V 8.7629152 8.7434272 L 13.377889,5.4166638 10.052179,2.089904 h -0.0205 -0.0205 L 6.6789213,5.42218 3.3466726,8.754456 l 0.016442,0.029577 0.016402,0.029577 3.3159376,3.31489 3.3159378,3.31489 h 0.01549 0.01548 z M 6.7941929,11.975907 3.5772102,8.7588969 6.7941526,5.541811 10.011095,2.3247261 h 0.01571 0.01571 l 3.21702,3.2170471 3.217019,3.2170471 -3.217019,3.2170477 -3.21702,3.217048 h -0.01567 -0.01567 z m 3.9214721,1.203017 0.10958,-0.02592 0.01889,-0.01462 0.01889,-0.01462 -0.0091,-0.0456 -0.0091,-0.0456 h 0.02003 0.02003 l 0.139903,0.04199 0.139904,0.04199 0.110344,-0.03808 0.110345,-0.03808 0.02442,-0.01772 0.02442,-0.01772 -0.02131,-0.06455 -0.02131,-0.06454 0.0064,-0.0062 0.0064,-0.0062 0.117407,0.02111 0.117413,0.02111 0.06599,8.56e-4 0.066,8.56e-4 0.103611,-0.05696 0.103611,-0.05696 0.008,-0.02077 0.008,-0.02077 -0.03277,-0.04602 -0.03277,-0.04602 v -0.01716 -0.01715 h 0.1855 0.185524 l 0.104089,-0.0788 0.104089,-0.0788 v -0.01658 -0.01658 l -0.0313,-0.03982 -0.0313,-0.0398 v -0.01953 -0.01953 l 0.121325,-0.01078 0.121326,-0.01078 0.05485,-0.01412 0.05485,-0.01412 0.09055,-0.09151 0.09056,-0.09151 -0.0092,-0.02396 -0.0092,-0.02395 -0.04664,-0.03448 -0.04663,-0.03448 0.0089,-0.01443 0.0089,-0.01445 0.06587,-0.01628 0.06588,-0.01628 0.09849,-0.0252 0.09848,-0.0252 0.08546,-0.100733 0.08546,-0.100734 v -0.0226 -0.02259 l -0.07802,-0.04304 -0.07803,-0.04304 0.0048,-0.01503 0.0048,-0.01502 0.139797,-0.05623 0.139797,-0.05623 0.03643,-0.02267 0.03647,-0.02267 0.06139,-0.104489 0.0614,-0.104489 v -0.02257 -0.02258 l -0.07943,-0.03301 -0.07943,-0.03301 0.0091,-0.01473 0.0091,-0.01474 0.121206,-0.07013 0.121204,-0.07013 0.03358,-0.03684 0.03358,-0.03684 0.04078,-0.102983 0.04078,-0.102984 v -0.01644 -0.01644 l -0.04304,-0.01702 -0.04304,-0.01702 -0.04305,-0.01007 -0.04304,-0.01007 v -0.01295 -0.01295 l 0.113493,-0.09298 0.113498,-0.09298 0.02926,-0.03264 0.02926,-0.03264 0.0283,-0.121727 0.0283,-0.1217269 -0.0164,-0.01979 -0.0164,-0.019784 h -0.06761 -0.0676 l -0.01033,-0.016695 -0.01033,-0.016693 0.100945,-0.1046311 0.100944,-0.1046311 0.02369,-0.046966 0.02369,-0.046965 0.01,-0.1125594 0.01,-0.1125586 -0.01893,-0.011705 -0.01893,-0.011704 -0.07892,0.00126 -0.07892,0.00126 -0.0116,-0.00703 -0.01161,-0.00703 0.06193,-0.083832 0.06193,-0.083832 0.04752,-0.074937 0.04752,-0.074937 V 8.8900711 8.7770059 l -0.0096,-0.024764 -0.0094,-0.024764 h -0.05114 -0.05114 l -0.06459,0.02279 -0.06459,0.02279 V 8.7527799 8.7325019 L 14.04238,8.5787623 14.12065,8.4250222 V 8.3784602 8.3318982 L 14.10198,8.2306049 14.0833,8.1293116 l -0.02262,-0.00869 -0.02263,-0.00869 -0.08399,0.02855 -0.08399,0.02855 -0.0074,-0.00743 -0.0074,-0.00743 0.05444,-0.1523184 0.05444,-0.152319 -1.87e-4,-0.050238 -1.82e-4,-0.050238 -0.0371,-0.1017555 -0.0371,-0.1017567 -0.0257,-0.00516 -0.0257,-0.00516 -0.08565,0.048334 -0.08564,0.048335 -1.4e-5,-0.027528 -1.5e-5,-0.027528 0.03423,-0.1646637 0.03423,-0.1646642 -0.05219,-0.1132182 -0.05219,-0.1132182 -0.02127,-0.01765 -0.02127,-0.01765 -0.06642,0.042635 -0.06642,0.042636 -0.03452,0.040944 -0.03452,0.040945 -0.0096,-0.00957 -0.0096,-0.00957 0.01589,-0.1700821 0.01589,-0.1700815 -0.01241,-0.055081 -0.01241,-0.055081 -0.05998,-0.085585 -0.05998,-0.085584 -0.0123,-0.014278 -0.0123,-0.014278 -0.06004,0.041613 -0.06004,0.041615 -0.04493,0.071082 -0.04492,0.071083 -0.01278,-0.020148 -0.01278,-0.020148 -1.87e-4,-0.073227 -1.83e-4,-0.073227 -0.01699,-0.1220374 -0.01699,-0.1220374 -0.01685,-0.031727 -0.01684,-0.031731 -0.08376,-0.08266 -0.08376,-0.082661 -0.02724,0.015073 -0.02724,0.015073 -0.04697,0.071129 -0.04697,0.071129 -0.01439,-0.00443 -0.01439,-0.00443 -0.04156,-0.1701416 -0.04156,-0.170142 -0.09276,-0.08307 -0.09276,-0.08307 -0.02816,-0.0094 -0.02815,-0.00941 -0.01962,0.016291 -0.01962,0.016287 -0.03787,0.07502 -0.03788,0.07502 0.0018,0.1174103 0.0018,0.1174103 0.02471,0.077945 0.02471,0.077944 -0.0126,0.012586 -0.0126,0.012586 -0.02256,-0.00864 -0.02256,-0.00864 -0.02793,-0.078652 -0.02793,-0.078653 -0.09397,-0.069178 -0.09397,-0.069178 -0.112567,-0.061248 -0.112565,-0.061248 -0.04001,-0.00932 -0.04001,-0.00932 -0.08047,0.012722 -0.08047,0.012722 -0.01879,-0.011599 -0.01878,-0.011599 0.0086,-0.063591 0.0086,-0.063591 -0.0227,-0.018853 -0.0227,-0.018853 -0.237929,0.00338 -0.237925,0.00338 -0.532263,0.014353 -0.532259,0.014353 -0.046336,0.01323 -0.046335,0.01323 0.022845,0.014469 0.022846,0.014469 0.735772,0.015883 0.735771,0.015883 v 0.039137 0.039137 l -0.712288,0.011292 -0.7122912,0.011292 -0.042751,0.012188 -0.042751,0.012193 -0.00111,0.015657 -0.00111,0.015657 0.059503,0.011841 0.059503,0.011841 0.5935942,0.011645 0.593598,0.011639 0.0056,0.017001 0.0056,0.017001 -0.101126,0.05133 -0.10113,0.05133 -0.537447,0.010633 -0.5374445,0.010633 -0.019367,0.011972 -0.019367,0.011971 v 0.0469 0.0469 l 0.029476,0.065673 0.029476,0.065675 0.025741,0.4539871 0.02574,0.4539871 0.022372,0.3365767 0.022372,0.3365767 0.0403,0.6261891 0.0403,0.6261893 0.023032,0.3190305 0.023025,0.3190306 v 0.044151 0.044151 l 0.05088,0.047801 0.05088,0.0478 0.02621,0.0085 0.02621,0.0085 0.05988,-0.02809 0.05989,-0.02809 0.01175,-0.070428 0.01176,-0.070429 0.117462,-1.667229 0.11746,-1.6672289 0.0084,-0.078409 0.0084,-0.078409 0.0111,-0.016854 0.0111,-0.016854 0.358991,-0.190437 0.358987,-0.1904369 h 0.02043 0.02043 l 0.02219,0.053063 0.02216,0.053063 0.05808,0.064288 0.05808,0.064289 0.08849,0.053753 0.08849,0.053752 0.101511,0.03157 0.101511,0.03157 0.0587,0.00938 0.0587,0.00938 v 0.014947 0.014947 h -0.08512 -0.08508 l -0.04151,0.015782 -0.04151,0.015782 -0.09258,0.071233 -0.09258,0.071233 v 0.019392 0.019392 l 0.05981,0.058407 0.05981,0.058407 0.08125,0.03087 0.08124,0.03087 h 0.06152 0.06152 l 0.01011,0.016341 0.01011,0.016341 -0.01886,0.02272 -0.01886,0.02272 0.02739,0.043129 0.02742,0.043129 0.03313,0.036771 0.03317,0.036771 0.07316,0.037239 0.07316,0.037239 0.110789,0.018294 0.110789,0.018294 v 0.012651 0.012651 l -0.05423,0.010178 -0.05423,0.010178 -0.01769,0.021306 -0.01769,0.021306 0.03669,0.06634 0.0367,0.066339 0.06676,0.050848 0.06675,0.050848 0.09341,0.034058 0.0934,0.034058 -0.0072,0.011645 -0.0072,0.011644 -0.04933,0.00987 -0.04933,0.00987 0.0094,0.05844 0.0094,0.05844 0.04343,0.061481 0.04344,0.061481 0.07219,0.04835 0.07219,0.04835 0.02954,0.017972 0.02955,0.017968 -0.04378,0.017142 -0.04378,0.017142 0.01056,0.058816 0.01056,0.058815 0.01911,0.046966 0.01911,0.046965 0.04331,0.051366 0.04331,0.051366 0.06864,0.047227 0.06865,0.047227 v 0.013955 0.013956 l -0.0587,0.00488 -0.0587,0.00489 -0.0047,0.081163 -0.0047,0.081163 0.03863,0.075384 0.03863,0.075384 0.07957,0.077684 0.07955,0.077686 v 0.01311 0.013109 L 13.08751,8.9377716 12.99358,8.9271496 V 9.0290163 9.130883 l 0.0234,0.055982 0.0234,0.055982 0.07181,0.088161 0.07181,0.088161 -0.009,0.009 -0.009,0.009 -0.06062,-0.018164 -0.06062,-0.018164 h -0.02485 -0.02486 l -0.01629,0.058705 -0.01629,0.058706 7.55e-4,0.046965 7.55e-4,0.046966 0.02142,0.060096 0.02142,0.060097 0.05774,0.093558 0.05774,0.093557 -0.0092,0.00917 -0.0091,0.00917 -0.08973,-0.040602 -0.08974,-0.040602 -0.0193,0.016009 -0.0193,0.016009 -0.01841,0.055822 -0.01841,0.055821 0.0084,0.0937 0.0084,0.0937 0.05069,0.09988 0.0507,0.09988 -0.01011,0.01009 -0.01011,0.01009 -0.09019,-0.05679 -0.09019,-0.05679 -0.03398,0.03811 -0.03398,0.03811 -0.0193,0.08617 -0.0193,0.08617 0.0253,0.09835 0.0253,0.09836 0.01022,0.03522 0.01022,0.03522 H 12.71654 12.7019 l -0.0658,-0.05633 -0.0658,-0.05632 -0.0219,0.0084 -0.0219,0.0084 -0.04141,0.07067 -0.04142,0.07067 -0.0086,0.08347 -0.0086,0.08347 0.02423,0.116867 0.02424,0.116867 0.01056,0.02739 0.01056,0.0274 H 12.47893 12.4618 l -0.02299,-0.05088 -0.02299,-0.05088 -0.06994,-0.07649 -0.06995,-0.07649 -0.02303,0.0088 -0.02303,0.0088 -0.04263,0.05589 -0.04262,0.05589 -0.02098,0.05873 -0.02098,0.05873 -3.65e-4,0.109578 -3.67e-4,0.109589 0.0138,0.05948 0.0138,0.05948 -0.01504,0.05442 -0.01505,0.05442 -0.01479,-0.0091 -0.01483,-0.0091 v -0.07322 -0.07323 l -0.073,-0.105878 -0.073,-0.105878 h -0.01307 -0.01307 l -0.06199,0.05601 -0.062,0.05601 -0.03197,0.08547 -0.03197,0.08547 -0.0011,0.06594 -0.0011,0.06595 -0.0123,0.03131 -0.0123,0.03131 -0.05724,-0.113497 -0.05724,-0.113496 h -0.01311 -0.01311 l -0.06106,0.04467 -0.06106,0.04467 -0.0286,0.03224 -0.02859,0.03224 -0.03701,0.09107 -0.03701,0.09107 -0.01447,0.0049 -0.01447,0.0048 -0.03588,-0.09596 -0.03588,-0.09596 -0.02347,-0.009 -0.02347,-0.009 -0.06704,0.03557 -0.06704,0.03557 -0.03939,0.05706 -0.03939,0.05706 -0.03277,0.07436 -0.03277,0.07436 h -0.01487 -0.01483 l -0.02658,-0.09558 -0.02658,-0.09558 -0.01735,-0.0067 -0.01735,-0.0067 -0.05729,0.02393 -0.0573,0.02393 -0.05644,0.04956 -0.05644,0.04955 -0.04607,0.09127 -0.04607,0.09127 -0.02321,0.08914 -0.02321,0.08915 -0.01966,0.01248 -0.01966,0.01248 -0.07475,2.4e-4 -0.07475,2.41e-4 -0.01527,0.04016 -0.01527,0.04016 v 0.05861 0.05861 l -0.01955,0.0255 -0.01955,0.0255 -0.04697,0.0049 -0.04697,0.0049 -0.0049,0.0587 -0.0049,0.0587 -0.1047285,-3.14e-4 -0.1047211,-3.15e-4 -0.1720355,-0.02289 -0.1720354,-0.0229 -0.08394,-0.01878 -0.083937,-0.01878 -0.00794,-0.02066 -0.00794,-0.02066 0.025081,-0.129136 0.025081,-0.129134 0.00398,-0.053 0.00398,-0.053 -0.1878559,-0.05762 -0.1878597,-0.05762 -0.10958,-0.04403 -0.1095834,-0.04403 -0.1647784,-0.08362 -0.1647785,-0.08362 -0.1315629,-0.08655 -0.1315664,-0.08656 h -0.018199 -0.018234 l -0.1056734,0.125225 -0.1056733,0.125223 -0.014167,0.0088 -0.014171,0.0088 -0.097849,-0.07409 -0.09785,-0.07409 -0.1800279,-0.182689 -0.180028,-0.182691 -0.022262,-0.04168 -0.022262,-0.04168 0.069232,-0.05854 0.069232,-0.05855 0.062437,-0.05747 0.06244,-0.05747 -0.051046,-0.06801 -0.051394,-0.06782 -0.1223983,-0.182023 -0.1223983,-0.182024 -0.082717,-0.168535 -0.082721,-0.168536 -0.064655,-0.181702 -0.064655,-0.181702 -0.054367,10e-4 -0.054367,0.001 -0.097842,0.02169 -0.097838,0.02169 -0.017394,-0.0174 -0.017394,-0.0174 -0.0281,-0.1384797 -0.0283,-0.1383692 L 6.4835404,9.5807018 6.46736,9.4241544 6.4597044,9.32186 l -0.00762,-0.1022944 0.012596,-0.020414 0.012596,-0.020414 0.1312845,-0.015848 0.131288,-0.015848 0.00944,-0.015193 0.00944,-0.015193 0.00952,-0.2454445 0.00952,-0.2454447 0.031782,-0.1504593 0.031782,-0.1504587 0.039263,-0.1354856 0.039258,-0.1354852 0.06258,-0.1578623 0.062572,-0.1578622 -0.00718,-0.011619 -0.00718,-0.011619 -0.1352575,-0.052291 -0.1352571,-0.052291 -0.00802,-0.020878 -0.00802,-0.020878 0.086569,-0.1758685 0.086572,-0.1758681 0.1043811,-0.1643747 0.1043845,-0.1643747 0.032698,-0.03522 0.032698,-0.03522 h 0.010033 0.010033 l 0.1129816,0.1017556 0.1129816,0.1017555 0.01904,-1.093e-4 0.01904,-1.097e-4 0.078272,-0.095112 L 7.6320588,6.830718 7.7886837,6.6782571 7.9452933,6.5257977 8.1095044,6.4035886 8.2737154,6.2813796 8.3951402,6.2108268 8.5165644,6.1402746 V 6.1264501 6.1126257 L 8.4372778,5.954632 8.3579956,5.7966393 l 0.00699,-0.018224 0.00699,-0.018219 0.1583929,-0.082832 0.1583929,-0.082833 V 5.5796496 5.5647681 L 8.6193888,5.4163044 8.55001,5.2678398 H 8.5205344 8.4910633 L 8.2807301,5.3740953 8.0703976,5.4803498 7.9412441,5.557872 7.8120937,5.6353942 v 0.02126 0.02126 l 0.1330641,0.1930739 0.1330641,0.1930745 -7.552e-4,0.020651 -7.551e-4,0.020651 -0.1269573,0.093927 -0.126957,0.093929 -0.1835429,0.1761158 -0.183543,0.1761157 H 7.4375123 7.4193182 L 7.2307042,6.4799208 7.0420867,6.3143891 l -0.031852,0.02855 -0.031852,0.02855 -0.094832,0.1157671 -0.094832,0.1157671 -0.1286665,0.1926717 -0.1286667,0.1926716 -0.1018589,0.20034 -0.1018577,0.2003396 -0.06389,0.1585015 -0.06389,0.1585017 -0.00408,0.037042 -0.00408,0.037042 0.2426476,0.079564 0.2426481,0.079564 0.00488,0.025439 0.00488,0.025439 -0.047988,0.1906816 -0.047992,0.1906811 -0.025554,0.1975802 -0.025555,0.1975807 -0.017464,0.017564 -0.017464,0.017565 -0.24762,-0.017831 -0.2476235,-0.017832 -0.016402,0.010133 -0.016367,0.010133 -0.00799,0.1701702 -0.00798,0.1701701 0.01827,0.219166 0.01827,0.2191664 0.023872,0.1486932 0.023873,0.1486932 0.03079,0.1330923 0.03079,0.1330916 0.04031,0.133065 0.040314,0.133065 0.030755,0.08219 0.030754,0.08219 0.026289,-4.7e-5 0.026289,-4.7e-5 0.2173042,-0.08605 0.2173078,-0.08605 0.017499,6.3e-5 0.017499,6.2e-5 0.1040589,0.215198 0.1040555,0.215197 0.095543,0.151267 0.095539,0.151267 v 0.0155 0.0155 l -0.21134,0.150917 -0.211336,0.150917 v 0.01447 0.01447 l 0.1291499,0.160984 0.1291499,0.160986 0.1643762,0.164374 0.1643757,0.164375 0.1643757,0.131948 0.1643722,0.131949 0.138691,0.09113 0.1386954,0.09113 h 0.018123 0.018123 l 0.1245842,-0.205364 0.1245843,-0.205367 0.018819,-0.0072 0.018818,-0.0072 0.2398546,0.117658 0.2398504,0.117658 0.1252362,0.04252 0.1252393,0.04252 0.019956,0.01813 0.019957,0.01814 -0.073541,0.238212 -0.073541,0.238212 0.015597,0.0156 0.015597,0.0156 0.183411,0.04632 0.1834076,0.04632 0.2224517,0.03412 0.2224478,0.03412 0.4096334,0.0013 0.409631,0.0013 0.01175,0.01174 0.01175,0.01174 0.01695,4.7e-5 0.01695,4.6e-5 0.109583,-0.02592 z m -0.544163,-3.2655672 -0.0074,-0.019569 0.02007,-0.4539871 0.02006,-0.4539876 0.04932,-1.1975871 0.04932,-1.1975871 0.0077,-0.051586 0.0077,-0.051585 0.04176,-0.015878 0.04176,-0.015878 0.03785,0.017248 0.03785,0.017248 -0.0091,0.1050089 -0.0091,0.1050089 -0.0962,1.5811271 -0.09621,1.5811282 -0.01391,0.03522 -0.01395,0.03522 h -0.02995 -0.02998 z M 9.793319,6.3302181 9.761723,6.3046181 9.782701,6.2793401 9.803679,6.2540621 h 0.317724 0.317728 l 0.02475,0.0095 0.02475,0.0095 v 0.030125 0.030126 l -0.01955,0.00676 -0.01955,0.00676 -0.31232,0.00448 -0.3123153,0.00448 z M 9.2832544,11.8308 9.5102498,11.74449 9.6469129,11.67623 9.7835796,11.60797 h 0.015818 0.015818 l 0.1058233,-0.07213 0.1058191,-0.07213 0.07044,-0.05608 0.07045,-0.05608 0.07827,-0.07012 0.07827,-0.07012 0.38354,-0.38036 0.38354,-0.38036 0.06262,-0.07358 0.06262,-0.07358 0.02761,-0.04046 0.02761,-0.04046 0.03746,-0.117454 0.03746,-0.1174529 0.01131,-0.1447633 0.01131,-0.1447635 h 0.01512 0.01512 l 0.04156,0.029572 0.04156,0.029571 0.09516,0.048344 0.09516,0.048345 0.111668,0.010378 0.111667,0.010378 0.04104,-0.026893 0.04105,-0.026893 0.02219,-0.053071 0.02219,-0.053071 v -0.044338 -0.044338 l 0.01878,-0.018788 0.01878,-0.018788 h 0.05836 0.05836 l 0.03167,-0.04024 0.03163,-0.040239 0.01056,-0.070039 0.01056,-0.070038 0.04497,-0.083032 0.04498,-0.083031 0.0827,-0.076735 0.08271,-0.076736 0.07395,-0.050556 0.07396,-0.050556 v -0.031631 -0.031636 h -0.02822 -0.02823 l -0.06961,0.049492 -0.06962,0.049492 -0.128194,0.1253289 -0.128199,0.1253283 -0.184897,-0.071239 -0.184898,-0.071239 -0.156547,-0.035185 -0.156548,-0.035186 -0.08019,-0.021286 -0.08019,-0.021286 -0.09204,-0.061462 -0.09203,-0.061462 -0.08406,-0.088073 -0.08406,-0.088073 -0.01768,0.00589 -0.01769,0.00589 -0.0055,0.028101 -0.0055,0.028101 0.108503,0.111495 0.1085,0.1114945 0.07922,0.1017556 0.07922,0.1017567 0.162124,0.1566631 0.162125,0.156663 0.109589,0.051218 0.109577,0.051219 0.02347,0.013417 0.02347,0.013417 -0.0049,0.060489 -0.0049,0.060489 -0.0231,0.02348 -0.0231,0.023485 -0.079,-0.00338 -0.079,-0.00338 -0.0809,-0.037239 -0.08089,-0.037239 L 11.451339,9.6359974 11.34175,9.5690434 11.26348,9.5029024 11.1852,9.4367624 11.15009,9.4181854 11.114981,9.3996084 10.973299,9.274904 10.831635,9.1501611 h -0.0219 -0.02189 l -0.01139,0.018426 -0.01139,0.018425 0.09667,0.090861 0.09667,0.090861 0.118115,0.088901 0.118119,0.088902 0.03832,0.065402 0.03833,0.065403 -1.87e-4,0.1003811 -1.83e-4,0.10038 -0.02937,0.1421808 -0.02937,0.142181 -0.02527,0.04884 -0.02527,0.04884 -0.223063,0.217811 -0.223064,0.217811 -0.357636,0.34621 -0.357636,0.346209 -0.082775,0.04736 -0.082776,0.04736 -0.019408,0.02338 -0.019408,0.02338 H 9.78057 9.7652304 l -0.1288715,0.06039 -0.1288716,0.06039 -0.059614,0.01119 -0.059615,0.01119 -0.1190882,0.06151 -0.1190888,0.06151 -0.0861,0.0216 -0.0861,0.0216 -0.028594,-0.01499 -0.028596,-0.01499 0.0078,-0.02028 0.0078,-0.02028 0.0111,-0.07391 0.011056,-0.07391 0.076277,-0.0548 0.076277,-0.0548 v -0.03973 -0.03973 l -0.03522,-0.05663 -0.03522,-0.05663 -0.010878,-0.320922 -0.010878,-0.320922 -0.010622,-0.276129 -0.010622,-0.276129 0.066685,-0.07234 0.06668,-0.072342 V 9.9176091 9.8556536 L 9.1050814,9.8162091 9.0792303,9.7767802 9.0385681,9.750138 8.9979103,9.7234969 8.7348323,9.6727258 8.4717539,9.6219547 8.4247128,9.5976291 8.3776717,9.5733036 8.3474661,9.530018 8.3172606,9.4867324 8.2889928,9.4114802 8.260725,9.336228 8.200925,9.28504 8.141121,9.233852 8.052194,9.19031 7.963267,9.146768 7.876519,9.116925 7.789771,9.087076 7.766155,9.110677 7.742538,9.134278 7.75751,9.14861 l 0.014977,0.014332 0.1330636,0.060703 0.1330641,0.060703 0.066324,0.034868 0.066322,0.034868 0.03365,0.066322 0.03365,0.066321 0.045737,0.066773 0.045742,0.066773 0.03522,0.023082 0.03522,0.023082 0.2429773,0.05362 0.2429773,0.053619 0.07438,0.034963 0.07438,0.034963 0.015159,0.039872 0.015159,0.039872 -0.032256,0.039993 -0.032255,0.039994 -0.042882,0.06167 -0.042888,0.06167 0.00181,0.20446 0.00181,0.20446 0.0257,0.211339 0.0257,0.211339 1.46e-5,0.189658 1.82e-5,0.189659 0.031303,0.0398 0.031303,0.0398 v 0.02307 0.02308 l -0.058706,0.04427 -0.058706,0.04427 -0.018159,0.0239 -0.018159,0.0239 -0.017061,0.08501 -0.017061,0.08501 v 0.07462 0.07462 l 0.043049,0.0062 0.043049,0.0062 0.06262,-0.0072 0.06262,-0.0072 0.2269924,-0.08631 z m 2.6577356,-2.3457204 -0.105333,-0.022615 -0.06727,-0.028832 -0.06727,-0.028832 -0.08901,-0.081356 -0.08902,-0.081356 -0.06521,-0.077884 -0.06521,-0.077884 0.0074,-0.00738 0.0074,-0.00738 0.201963,0.048264 0.201967,0.048264 0.101822,0.04399 0.101822,0.043984 0.06262,0.019549 0.06261,0.019549 0.02123,0.01691 0.02123,0.01691 -0.0076,0.06714 -0.0076,0.06714 -0.01951,0.02349 -0.01948,0.02349 -0.04113,-0.00126 -0.04113,-0.00126 -0.105322,-0.022614 z m -0.586411,-3.8784123 0.02497,-0.0381 0.03204,-0.095091 0.03203,-0.095091 v -0.084107 -0.084107 l -0.02131,-0.070833 -0.02131,-0.070833 -0.09744,-0.1504263 -0.09745,-0.1504264 -0.02995,-0.078836 -0.02994,-0.078836 v -0.087238 -0.087238 l -0.01889,0.00629 -0.01886,0.00629 -0.03592,0.067922 -0.03592,0.067922 3.66e-4,0.09538 3.66e-4,0.09538 0.07062,0.1643746 0.07062,0.1643747 0.0094,0.06653 0.0094,0.066531 -0.02683,0.07028 -0.02683,0.07028 -0.04002,0.031474 -0.04002,0.031474 h -0.04689 -0.04692 l -0.05333,-0.032959 -0.05334,-0.032965 -0.04439,-0.088362 -0.04439,-0.088362 -0.01761,-0.082958 -0.01761,-0.082958 v -0.076523 -0.076531 l 0.02321,-0.1001689 0.02321,-0.1001689 0.03288,-0.074306 0.03288,-0.074306 -0.0074,-0.00743 -0.0074,-0.00743 -0.03693,0.051559 -0.03693,0.051559 -0.02138,0.039357 -0.02142,0.039358 -0.02146,0.078273 -0.02146,0.078275 -1.83e-4,0.1256683 -1.87e-4,0.125668 -0.02439,0.034792 -0.02439,0.034792 h -0.04542 -0.04541 l -0.03912,-0.066744 -0.03911,-0.066744 -0.02391,-0.1015444 -0.02391,-0.1015444 -0.01018,-0.1193652 -0.01018,-0.1193651 0.019,-0.1299562 0.019,-0.1299558 0.0389,-0.10291 0.0389,-0.1029111 0.0078,-0.031308 0.0078,-0.031308 -0.06795,0.073814 -0.06795,0.073815 -0.0466,0.09056 -0.04659,0.09056 7.55e-4,0.133065 7.55e-4,0.1330651 0.01333,0.096137 0.01333,0.096137 -0.0397,0.026018 -0.03971,0.026018 -0.05605,-0.023421 -0.05606,-0.023422 -0.04774,-0.075241 -0.04775,-0.075251 -0.03075,-0.099491 -0.030755,-0.099491 V 4.4080133 4.3029344 l 0.030428,-0.1159223 0.03043,-0.1159223 -0.0059,-0.00586 -0.0059,-0.00586 -0.033207,0.065086 -0.033207,0.065086 -0.033539,0.10472 -0.033539,0.10472 -0.00111,0.2113385 -0.00111,0.211339 0.04543,0.1819039 0.045435,0.1819035 -0.034455,0.071189 -0.034454,0.071189 -0.040264,0.026384 -0.040264,0.02638 -0.052174,0.00146 -0.05217,0.00146 L 9.691255,5.3546187 9.6593276,5.325712 9.6442799,5.2712596 9.6292676,5.2168077 9.6526621,5.0818361 9.6760567,4.9468648 9.69341,4.884246 9.7107634,4.8216269 9.7115186,4.6102879 9.7122737,4.3989493 9.6534107,4.2189196 9.5945508,4.0388901 9.5799763,3.9136526 9.5654422,3.7884143 9.564687,3.7727588 l -7.551e-4,-0.015656 -0.02424,0.031308 -0.024236,0.031308 -0.037541,0.073154 -0.037541,0.073153 -0.017464,0.1068755 -0.017464,0.1068756 0.040013,0.1956842 0.040013,0.1956842 0.010211,0.080851 0.010211,0.080852 -0.018346,0.1054023 -0.018346,0.1054022 -0.031379,0.061492 -0.031379,0.061492 -0.049961,0.020872 -0.049961,0.020872 -0.041603,-0.00796 -0.041599,-0.00796 -0.043678,-0.045591 -0.043678,-0.04559 0.00181,-0.056409 0.00181,-0.056409 0.048955,-0.064739 0.048954,-0.06474 0.0573,-0.083368 0.0573,-0.083368 0.00622,-0.088833 0.00622,-0.088834 -0.034309,-0.078273 -0.034309,-0.078273 -0.034526,0.1050978 -0.034525,0.1050977 -0.057212,0.082758 -0.057212,0.082759 -0.1410495,0.1523307 -0.1410531,0.1523305 -0.041649,0.082186 -0.041645,0.082185 -0.00769,0.095882 -0.00769,0.095882 0.020062,0.06097 0.020067,0.06097 0.039379,0.059619 0.039373,0.059619 0.071674,0.042138 0.071673,0.042138 0.3757157,0.00783 0.3757117,0.00783 0.7922733,0.00453 0.792274,0.00453 0.02497,-0.0381 z m -4.5283421,9.6384757 0.063488,-0.05736 0.014061,-0.02624 0.014061,-0.02626 -0.1418988,-0.143391 -0.1418989,-0.143391 h -0.015048 -0.015048 l -0.081026,0.07762 -0.081022,0.07762 0.1484088,0.149374 0.1484123,0.149376 h 0.012007 0.012007 z m 0.7742632,-0.136374 0.086543,-0.03962 0.082863,-0.08292 0.082863,-0.08292 0.042711,-0.09036 0.042711,-0.09036 0.00912,-0.09752 0.00912,-0.09752 -0.025957,-0.101734 -0.025957,-0.101733 -0.050293,-0.0836 -0.050293,-0.0836 -0.082548,-0.09147 -0.082541,-0.09145 -0.095609,-0.06384 -0.095604,-0.06384 -0.1089978,-0.03311 -0.1090011,-0.03311 -0.1120443,0.0077 -0.1120442,0.0077 -0.091647,0.04391 -0.091647,0.04391 -0.077363,0.07536 -0.077368,0.07536 -0.042323,0.09032 -0.042329,0.09032 v 0.156546 0.156548 l 0.062598,0.125238 0.062598,0.125238 0.1253791,0.125238 0.1253752,0.125237 0.1029634,0.05059 0.1029611,0.05059 0.061294,0.01537 0.061294,0.01537 0.1133405,-0.006 0.1133401,-0.006 z m -0.5621982,-0.386278 -0.054382,-0.04774 -0.0175,-0.05299 -0.017499,-0.05299 0.016623,-0.06169 0.016588,-0.06169 0.060924,-0.07631 0.060929,-0.0763 0.044664,-0.0328 0.04466,-0.0328 0.050097,-0.02591 0.050101,-0.02591 0.059482,6.2e-5 0.059482,6.2e-5 0.051822,0.0316 0.051819,0.0316 0.023798,0.05698 0.023798,0.05698 -0.010289,0.05618 -0.010289,0.05618 -0.047117,0.07392 -0.047111,0.07393 -0.05387,0.0473 -0.053873,0.0473 -0.061561,0.03141 -0.061558,0.0314 h -0.0627 -0.062697 l -0.054382,-0.04774 z M 13.79534,14.57106 13.901396,14.465804 v -0.01589 -0.01589 l -0.238538,-0.238911 -0.238547,-0.238919 h 0.02618 0.02618 l 0.114523,0.02416 0.114519,0.02416 0.237895,0.03847 0.237896,0.03847 h 0.05211 0.05211 l 0.113107,-0.113865 0.113107,-0.113865 v -0.01518 -0.01518 l -0.410834,-0.41106 -0.410824,-0.411047 h -0.01337 -0.01337 l -0.108055,0.104322 -0.108067,0.104322 v 0.0265 0.02651 l 0.137018,0.131384 0.137014,0.131383 0.08216,0.06192 0.08216,0.06192 v 0.01244 0.01243 h -0.03025 -0.03024 l -0.310239,-0.05526 -0.31024,-0.05527 -0.05183,-0.0021 -0.05183,-0.0021 -0.117551,0.11607 -0.11755,0.116069 -0.01626,0.02951 -0.01625,0.02951 0.412512,0.412731 0.412512,0.412731 h 0.01538 0.01538 z m -1.799767,-0.01909 0.06957,-0.07738 0.0201,-0.09466 0.0201,-0.09466 0.01747,-0.01324 0.01747,-0.01324 0.09209,-0.01982 0.09208,-0.01982 0.06838,-0.06302 0.06838,-0.06302 v -0.02149 -0.02149 h -0.0063 -0.0063 l -0.153589,0.0309 -0.15359,0.0309 -0.09874,0.09874 -0.09876,0.09876 -0.02878,0.148225 -0.02878,0.148225 0.0066,0.01174 0.0066,0.01174 h 0.01329 0.01329 z m -5.3188318,-0.682341 0.3757152,-0.387088 0.00546,-0.02353 0.00546,-0.02353 -0.1381992,-0.13884 -0.1381971,-0.138839 H 6.7706488 6.7543173 L 6.6219454,13.290867 6.48957,13.423931 H 6.466136 6.442706 L 6.33664,13.318676 6.2305789,13.213431 v -0.01642 -0.01642 l 0.1330677,-0.132374 0.1330635,-0.132374 v -0.02486 -0.02486 L 6.3500988,12.722353 6.2034877,12.578578 h -0.013145 -0.013144 l -0.3959886,0.394873 -0.3959884,0.394873 v 0.0236 0.0236 l 0.1444985,0.145102 0.1444946,0.1451 h 0.015672 0.015672 l 0.151894,-0.151325 0.1518981,-0.151325 0.1184293,0.114833 0.1184263,0.114834 v 0.01665 0.01664 l -0.1523411,0.152915 -0.1523371,0.152913 0.1550576,0.155642 0.1550612,0.155644 0.024678,-0.01321 0.024678,-0.01321 z m 5.8984798,-0.08004 0.175558,-0.103989 0.02189,-0.02022 0.02189,-0.02022 -0.01988,-0.04799 -0.01988,-0.04799 h -0.02182 -0.02182 l -0.203288,0.101867 -0.203289,0.101867 v 0.01604 0.01605 l 0.02267,0.05429 0.0227,0.05429 h 0.02482 0.02485 z m 2.852607,-0.851038 0.140328,-0.140982 -0.308944,-0.309235 -0.308943,-0.309233 v -0.02399 -0.02399 l 0.07164,-0.06979 0.07166,-0.06979 0.01504,-0.02744 0.01505,-0.02745 -0.07429,-0.07941 -0.07428,-0.07941 -0.02969,-0.0159 -0.02969,-0.0159 -0.342745,0.341458 -0.342749,0.341457 v 0.01568 0.01567 l 0.08952,0.09047 0.08952,0.09047 h 0.01666 0.01666 l 0.08503,-0.0861 0.08503,-0.0861 h 0.02417 0.02417 l 0.304965,0.305268 0.304967,0.305267 h 0.0083 0.0083 z M 5.1468989,12.32348 5.5417742,11.927492 v -0.01466 -0.01466 L 5.3972797,11.753082 5.2527811,11.607981 H 5.2290944 5.2054079 L 4.810009,12.003149 4.4146176,12.398316 v 0.01548 0.01548 l 0.1444945,0.1451 0.1444987,0.145101 h 0.0242 0.0242 z m 10.8721321,0.02388 0.136652,-0.137289 v -0.02289 -0.0229 l -0.152279,-0.15285 -0.152274,-0.15285 0.108811,-0.109644 0.108811,-0.109645 h 0.01637 0.01637 l 0.148101,0.14872 0.148104,0.14872 h 0.01629 0.01629 l 0.136648,-0.137289 0.136656,-0.137288 v -0.01574 -0.01574 l -0.413105,-0.412028 -0.413105,-0.412029 -0.02914,0.01572 -0.02914,0.01572 -0.122303,0.125867 -0.1223,0.125867 0.01556,0.02819 0.01557,0.02819 0.126324,0.124871 0.126326,0.124871 v 0.02087 0.02087 l -0.08182,0.08651 -0.08181,0.08651 -0.02929,0.01569 -0.02929,0.01568 -0.145072,-0.142266 -0.145074,-0.142268 h -0.02072 -0.02072 l -0.139324,0.139323 -0.139323,0.139321 0.01593,0.02897 0.01593,0.02897 0.397087,0.395282 0.39709,0.395282 h 0.01527 0.01527 z M 4.4833509,11.679729 4.7277272,11.109631 v -0.01887 -0.01887 l -0.1291504,-0.132638 -0.1291535,-0.132638 -0.042676,-0.03062 -0.042676,-0.03062 -0.5678548,0.244253 -0.5678587,0.244253 -0.015083,0.01506 -0.015083,0.01506 0.1242953,0.125029 0.1242988,0.125028 h 0.020465 0.02047 l 0.077232,-0.03913 0.077232,-0.03913 h 0.028263 0.028268 l 0.1325365,0.13323 0.1325365,0.133229 -0.025483,0.06637 -0.025483,0.06637 -0.020868,0.05101 -0.020868,0.05101 0.1558229,0.15641 0.1558228,0.156411 h 0.018123 0.018123 z m -0.4580916,-0.29839 -0.064612,-0.0701 v -0.008 -0.008 l 0.1248883,-0.06279 0.1248919,-0.0628 h 0.015999 0.015999 v 0.02152 0.02152 l -0.054392,0.119366 -0.0544,0.119364 H 4.1117384 4.089844 Z m -0.3117116,0.716443 0.074897,-0.07377 v -0.01593 -0.01593 L 3.6517922,11.85486 3.5151401,11.717571 h -0.020248 -0.020248 l -0.0701,0.06461 -0.070096,0.06461 v 0.02509 0.02509 l 0.1366521,0.137289 0.1366556,0.137289 h 0.01545 0.01545 z m 13.3844063,-0.869422 0.114494,-0.05659 0.102678,-0.101169 0.102666,-0.10117 0.05019,-0.101941 0.05018,-0.101941 0.01619,-0.08756 0.01618,-0.08756 -0.01563,-0.08452 -0.01563,-0.08452 -0.03522,-0.07594 -0.03522,-0.07594 -0.08733,-0.0861 -0.08733,-0.0861 -0.09742,-0.0518 -0.09742,-0.051795 v -0.00769 -0.00769 l 0.02474,-0.047871 0.02474,-0.047871 -0.0084,-0.033539 -0.0084,-0.033539 -0.109611,-0.1086044 -0.109622,-0.1086045 -0.03189,0.028842 -0.03186,0.028842 v 0.02276 0.02276 l 0.0861,0.086101 0.0861,0.086101 v 0.036881 0.036881 l -0.02739,0.014107 -0.02739,0.014107 -0.08573,0.010933 -0.08573,0.010933 -0.108055,0.056785 -0.108056,0.05678 -0.08287,0.07573 -0.08285,0.07573 -0.05654,0.08519 -0.05654,0.08519 -0.02409,0.06699 -0.02409,0.06699 -3.65e-4,0.130801 -3.67e-4,0.130801 0.0566,0.114534 0.05661,0.114534 0.08112,0.07293 0.08112,0.07293 0.06345,0.03261 0.06343,0.03262 0.04697,0.01238 0.04697,0.01238 0.128191,-0.0043 0.128186,-0.0043 0.114498,-0.05659 z m -0.25431,-0.337959 -0.0696,-0.04443 -0.06521,-0.07119 -0.0652,-0.07119 -0.02482,-0.04798 -0.02482,-0.04798 v -0.05635 -0.05635 l 0.02377,-0.04592 0.02377,-0.04592 0.04592,-0.02375 0.04592,-0.02375 h 0.04825 0.04827 l 0.07414,0.03758 0.07416,0.03758 0.07238,0.07737 0.07238,0.07737 0.02516,0.04865 0.02516,0.04865 v 0.05635 0.05635 l -0.02377,0.04592 -0.02377,0.04592 -0.04592,0.02375 -0.04592,0.02375 h -0.06033 -0.06033 z m -13.4230838,0.02807 0.078272,-0.03705 0.086792,-0.08679 0.086796,-0.08679 0.036469,-0.07827 0.036469,-0.07828 0.00806,-0.128896 0.00806,-0.128896 -0.03578,-0.09808 -0.035774,-0.09807 -0.038513,-0.06264 L 3.6128987,9.9720607 3.3446584,9.7020172 3.0764179,9.4319728 H 3.0615162 3.0466146 L 2.8929077,9.5829883 2.7391978,9.7340044 2.7107134,9.7082236 2.6822291,9.6824428 h -0.024019 -0.024019 l -0.073373,0.078442 -0.073373,0.078442 0.027754,0.04696 0.027755,0.046956 -0.1600224,0.1605662 -0.160019,0.160565 v 0.01248 0.01247 l 0.230906,0.230621 0.2309095,0.230621 0.086103,0.064 0.0861,0.06399 0.054792,0.02794 0.054788,0.02794 0.06262,0.02072 0.06262,0.02072 0.1252398,-0.0052 0.1252356,-0.0052 z m -0.4907181,-0.367675 -0.052387,-0.02275 -0.061111,-0.0484 -0.061111,-0.0484 v -0.02886 -0.02886 l 0.058358,-0.0481 0.058358,-0.0481 h 0.017172 0.017172 l 0.036766,0.03914 0.036766,0.03914 h 0.024936 0.024936 l 0.074083,-0.07099 0.074088,-0.07099 v -0.01456 -0.01456 L 3.130901,10.131 3.0839354,10.07751 v -0.01588 -0.01588 l 0.056649,-0.049734 0.056649,-0.049734 0.046542,0.044201 0.046538,0.044201 0.032769,0.06262 0.032769,0.06262 v 0.07827 0.07827 l -0.034052,0.06563 -0.034052,0.06563 -0.051863,0.03956 -0.051867,0.03956 -0.057359,0.02397 -0.057362,0.02397 -0.043552,-6.04e-4 -0.043557,-6.04e-4 -0.052383,-0.02275 z"
     id="path3173" /></svg>
