<?xml version="1.0" encoding="UTF-8" standalone="no"?>
<!-- Created with Inkscape (http://www.inkscape.org/) -->

<svg
   width="85mm"
   height="21mm"
   viewBox="0 0 85 21"
   version="1.1"
   id="svg5"
   xml:space="preserve"
   inkscape:version="1.2.2 (732a01da63, 2022-12-09, custom)"
   sodipodi:docname="sfi-white.svg"
   xmlns:inkscape="http://www.inkscape.org/namespaces/inkscape"
   xmlns:sodipodi="http://sodipodi.sourceforge.net/DTD/sodipodi-0.dtd"
   xmlns="http://www.w3.org/2000/svg"
   xmlns:svg="http://www.w3.org/2000/svg"><sodipodi:namedview
     id="namedview7"
     pagecolor="#ffffff"
     bordercolor="#000000"
     borderopacity="0.25"
     inkscape:showpageshadow="2"
     inkscape:pageopacity="0.0"
     inkscape:pagecheckerboard="0"
     inkscape:deskcolor="#d1d1d1"
     inkscape:document-units="mm"
     showgrid="false"
     inkscape:zoom="1.4841611"
     inkscape:cx="294.10554"
     inkscape:cy="153.95903"
     inkscape:window-width="1920"
     inkscape:window-height="1043"
     inkscape:window-x="0"
     inkscape:window-y="0"
     inkscape:window-maximized="1"
     inkscape:current-layer="svg5"><inkscape:page
       x="0"
       y="0"
       width="84.999992"
       height="21"
       id="page386" /><inkscape:page
       x="220"
       y="0"
       width="209.22897"
       height="51.166893"
       id="page388" /></sodipodi:namedview><defs
     id="defs2" /><g
     inkscape:label="Layer 1"
     inkscape:groupmode="layer"
     id="layer1" /><g
     id="g208"
     transform="matrix(0.0143317,0,0,-0.01436776,5.3010855e-6,20.838424)"
     style="fill:#feffff;fill-opacity:1;stroke-width:2.45843"><path
       d="m 2153.82,238.129 c -29.13,0 -50.08,6.851 -68.58,25.633 l 19.6,19.289 c 14.15,-14.199 29.65,-18.52 49.55,-18.52 25.26,0 39.96,10.918 39.96,29.688 0,8.351 -2.44,15.461 -7.65,20.101 -4.85,4.629 -9.77,6.489 -21.19,8.11 l -22.87,3.281 c -15.78,2.277 -28.28,7.641 -36.72,15.527 -9.54,8.992 -14.15,21.242 -14.15,37.051 0,33.723 24.47,56.852 64.78,56.852 25.57,0 43.48,-6.551 60.12,-22.032 l -18.76,-18.539 c -12.01,11.43 -25.91,14.95 -42.18,14.95 -22.88,0 -35.37,-13.04 -35.37,-30.141 0,-7.141 2.16,-13.391 7.33,-17.981 4.87,-4.386 12.78,-7.628 21.76,-9.019 l 22.01,-3.238 c 17.99,-2.7 28.05,-7.11 36.25,-14.411 10.62,-9.261 15.78,-23.109 15.78,-39.699 0,-35.679 -29.14,-56.902 -69.67,-56.902"
       style="fill:#feffff;fill-opacity:1;fill-rule:nonzero;stroke:none;stroke-width:2.45843"
       id="path210" /><path
       d="m 2310.49,238.129 c -31.02,0 -61.52,19.051 -61.52,70.75 0,51.691 30.5,70.5 61.52,70.5 19.03,0 32.38,-5.488 45.43,-19.359 l -19.03,-18.52 c -8.72,9.539 -15.52,13.051 -26.4,13.051 -10.62,0 -19.6,-4.321 -25.6,-12.231 -6.01,-7.59 -8.15,-17.39 -8.15,-33.441 0,-16.059 2.14,-26.141 8.15,-33.738 6,-7.922 14.98,-12.231 25.6,-12.231 10.88,0 17.68,3.5 26.4,13.031 l 19.03,-18.191 c -13.05,-13.922 -26.4,-19.621 -45.43,-19.621"
       style="fill:#feffff;fill-opacity:1;fill-rule:nonzero;stroke:none;stroke-width:2.45843"
       id="path212" /><path
       d="m 2384.46,377.691 h 27.76 V 239.762 h -27.76 z m -0.82,56.629 h 29.37 v -29.449 h -29.37 v 29.449"
       style="fill:#feffff;fill-opacity:1;fill-rule:nonzero;stroke:none;stroke-width:2.45843"
       id="path214" /><path
       d="m 2531.37,338.781 c -4.38,10.36 -14.16,17.379 -27.2,17.379 -13.05,0 -23.17,-7.019 -27.49,-17.379 -2.75,-6.25 -3.29,-10.301 -3.55,-18.742 h 62.07 c -0.32,8.441 -1.12,12.492 -3.83,18.742 m -58.24,-38.082 c 0,-23.668 12.53,-38.597 35.09,-38.597 15.54,0 23.69,4.277 33.46,14.148 l 17.71,-16.59 c -14.13,-14.199 -27.48,-21.531 -51.71,-21.531 -34.55,0 -62.04,18.25 -62.04,70.75 0,44.621 23.11,70.5 58.53,70.5 37,0 58.47,-27.219 58.47,-66.449 v -12.231 h -89.51"
       style="fill:#feffff;fill-opacity:1;fill-rule:nonzero;stroke:none;stroke-width:2.45843"
       id="path216" /><path
       d="m 2679.9,239.762 v 84.047 c 0,21.55 -12.27,30.742 -27.74,30.742 -15.52,0 -28.59,-9.5 -28.59,-30.742 v -84.047 h -27.76 v 137.929 h 27.22 v -13.832 c 9.49,10.289 22.85,15.52 36.72,15.52 14.17,0 25.88,-4.668 34.02,-12.559 10.59,-10.371 13.9,-23.359 13.9,-38.89 v -88.168 h -27.77"
       style="fill:#feffff;fill-opacity:1;fill-rule:nonzero;stroke:none;stroke-width:2.45843"
       id="path218" /><path
       d="m 2801.15,238.129 c -31,0 -61.47,19.051 -61.47,70.75 0,51.691 30.47,70.5 61.47,70.5 19.07,0 32.4,-5.488 45.5,-19.359 l -19.06,-18.52 c -8.71,9.539 -15.5,13.051 -26.44,13.051 -10.53,0 -19.55,-4.321 -25.53,-12.231 -6.03,-7.59 -8.19,-17.39 -8.19,-33.441 0,-16.059 2.16,-26.141 8.19,-33.738 5.98,-7.922 15,-12.231 25.53,-12.231 10.94,0 17.73,3.5 26.44,13.031 l 19.06,-18.191 c -13.1,-13.922 -26.43,-19.621 -45.5,-19.621"
       style="fill:#feffff;fill-opacity:1;fill-rule:nonzero;stroke:none;stroke-width:2.45843"
       id="path220" /><path
       d="m 2949.16,338.781 c -4.37,10.36 -14.19,17.379 -27.26,17.379 -13.05,0 -23.13,-7.019 -27.47,-17.379 -2.68,-6.25 -3.24,-10.301 -3.51,-18.742 h 62.02 c -0.29,8.441 -1.08,12.492 -3.78,18.742 m -58.24,-38.082 c 0,-23.668 12.46,-38.597 35.08,-38.597 15.53,0 23.68,4.277 33.46,14.148 l 17.68,-16.59 c -14.11,-14.199 -27.46,-21.531 -51.71,-21.531 -34.51,0 -62.03,18.25 -62.03,70.75 0,44.621 23.15,70.5 58.5,70.5 37.04,0 58.56,-27.219 58.56,-66.449 v -12.231 h -89.54"
       style="fill:#feffff;fill-opacity:1;fill-rule:nonzero;stroke:none;stroke-width:2.45843"
       id="path222" /><path
       d="m 3107.96,407.09 v -59.02 h 80.53 v -26.41 h -80.53 v -81.898 h -29.42 V 433.48 h 123.84 v -26.39 h -94.42"
       style="fill:#feffff;fill-opacity:1;fill-rule:nonzero;stroke:none;stroke-width:2.45843"
       id="path224" /><path
       d="m 3292.6,346.711 c -5.15,5.148 -12.25,7.84 -20.42,7.84 -8.14,0 -14.91,-2.692 -20.12,-7.84 -8.42,-8.461 -9.5,-22.902 -9.5,-37.832 0,-14.981 1.08,-29.379 9.5,-37.879 5.21,-5.09 11.98,-8.09 20.12,-8.09 8.17,0 15.27,3 20.42,8.09 8.44,8.5 9.59,22.898 9.59,37.879 0,14.93 -1.15,29.371 -9.59,37.832 m 21.01,-92.301 c -9.01,-9.191 -22.61,-16.281 -41.43,-16.281 -18.76,0 -32.1,7.09 -41.05,16.281 -13.06,13.629 -16.31,30.988 -16.31,54.469 0,23.121 3.25,40.551 16.31,54.152 8.95,9.207 22.29,16.348 41.05,16.348 18.82,0 32.42,-7.141 41.43,-16.348 13.01,-13.601 16.31,-31.031 16.31,-54.152 0,-23.481 -3.3,-40.84 -16.31,-54.469"
       style="fill:#feffff;fill-opacity:1;fill-rule:nonzero;stroke:none;stroke-width:2.45843"
       id="path226" /><path
       d="m 3447.13,239.762 v 13.867 c -9.49,-10.309 -22.85,-15.5 -36.74,-15.5 -14.15,0 -25.87,4.672 -34,12.512 -10.59,10.347 -13.91,23.39 -13.91,38.937 v 88.113 h 27.75 v -84.062 c 0,-21.5 12.23,-30.719 27.76,-30.719 15.53,0 28.61,9.488 28.61,30.719 v 84.062 h 27.76 V 239.762 h -27.23"
       style="fill:#feffff;fill-opacity:1;fill-rule:nonzero;stroke:none;stroke-width:2.45843"
       id="path228" /><path
       d="m 3598.95,239.762 v 84.047 c 0,21.55 -12.3,30.742 -27.74,30.742 -15.55,0 -28.61,-9.5 -28.61,-30.742 v -84.047 h -27.76 v 137.929 h 27.23 v -13.832 c 9.47,10.289 22.85,15.52 36.68,15.52 14.19,0 25.87,-4.668 34.04,-12.559 10.61,-10.371 13.89,-23.359 13.89,-38.89 v -88.168 h -27.73"
       style="fill:#feffff;fill-opacity:1;fill-rule:nonzero;stroke:none;stroke-width:2.45843"
       id="path230" /><path
       d="m 3715.81,354.551 c -25.01,0 -28.8,-21.199 -28.8,-45.672 0,-24.481 3.79,-45.969 28.8,-45.969 25.1,0 28.66,21.488 28.66,45.969 0,24.473 -3.56,45.672 -28.66,45.672 m 29.17,-114.789 v 14.648 c -10.36,-12.469 -21.5,-16.281 -36.48,-16.281 -13.87,0 -26.1,4.672 -33.7,12.23 -13.92,13.891 -15.53,37.59 -15.53,58.52 0,20.941 1.61,44.34 15.53,58.25 7.6,7.582 19.55,12.25 33.46,12.25 14.68,0 26.05,-3.59 36.21,-15.52 v 69.621 h 27.71 V 239.762 h -27.2"
       style="fill:#feffff;fill-opacity:1;fill-rule:nonzero;stroke:none;stroke-width:2.45843"
       id="path232" /><path
       d="m 3886.45,300.699 h -32.39 c -16.35,0 -24.77,-7.32 -24.77,-19.859 0,-12.5 7.9,-19.559 25.29,-19.559 10.63,0 18.5,0.821 25.85,7.84 4.09,4.098 6.02,10.649 6.02,20.457 z m 0.55,-60.937 v 12.5 c -10.14,-10.051 -19.64,-14.133 -36.77,-14.133 -17.13,0 -28.55,4.082 -37.01,12.512 -7.07,7.39 -10.9,17.968 -10.9,29.66 0,23.09 16.05,39.738 47.65,39.738 h 36.48 v 9.781 c 0,17.442 -8.74,25.828 -30.3,25.828 -15.19,0 -22.53,-3.488 -30.14,-13.328 l -18.26,17.168 c 13.09,15.223 26.71,19.891 49.55,19.891 37.81,0 56.9,-16.02 56.9,-47.379 V 239.762 H 3887"
       style="fill:#feffff;fill-opacity:1;fill-rule:nonzero;stroke:none;stroke-width:2.45843"
       id="path234" /><path
       d="m 3994.37,239.762 c -25.81,0 -37.75,18.5 -37.75,38.386 v 75.872 h -15.82 v 21.23 h 15.82 v 41.941 h 27.71 V 375.25 H 4011 v -21.23 h -26.67 V 279.5 c 0,-10.121 4.88,-16.09 15.24,-16.09 H 4011 v -23.648 h -16.63"
       style="fill:#feffff;fill-opacity:1;fill-rule:nonzero;stroke:none;stroke-width:2.45843"
       id="path236" /><path
       d="m 4042.8,377.691 h 27.74 V 239.762 h -27.74 z m -0.84,56.629 h 29.49 v -29.449 h -29.49 v 29.449"
       style="fill:#feffff;fill-opacity:1;fill-rule:nonzero;stroke:none;stroke-width:2.45843"
       id="path238" /><path
       d="m 4182.39,346.711 c -5.16,5.148 -12.24,7.84 -20.44,7.84 -8.1,0 -15,-2.692 -20.08,-7.84 -8.45,-8.461 -9.58,-22.902 -9.58,-37.832 0,-14.981 1.13,-29.379 9.58,-37.879 5.08,-5.09 11.98,-8.09 20.08,-8.09 8.2,0 15.28,3 20.44,8.09 8.38,8.5 9.47,22.898 9.47,37.879 0,14.93 -1.09,29.371 -9.47,37.832 m 20.96,-92.301 c -9.01,-9.191 -22.57,-16.281 -41.4,-16.281 -18.76,0 -32.12,7.09 -41.04,16.281 -13.1,13.629 -16.33,30.988 -16.33,54.469 0,23.121 3.23,40.551 16.33,54.152 8.92,9.207 22.28,16.348 41.04,16.348 18.83,0 32.39,-7.141 41.4,-16.348 13.05,-13.601 16.32,-31.031 16.32,-54.152 0,-23.481 -3.27,-40.84 -16.32,-54.469"
       style="fill:#feffff;fill-opacity:1;fill-rule:nonzero;stroke:none;stroke-width:2.45843"
       id="path240" /><path
       d="m 4337.71,239.762 v 84.047 c 0,21.55 -12.23,30.742 -27.76,30.742 -15.53,0 -28.55,-9.5 -28.55,-30.742 v -84.047 h -27.78 v 137.929 h 27.25 v -13.832 c 9.46,10.289 22.79,15.52 36.71,15.52 14.19,0 25.84,-4.668 33.99,-12.559 10.62,-10.371 13.91,-23.359 13.91,-38.89 v -88.168 h -27.77"
       style="fill:#feffff;fill-opacity:1;fill-rule:nonzero;stroke:none;stroke-width:2.45843"
       id="path242" /><path
       d="m 4469.5,433.48 h 29.48 V 239.762 H 4469.5 V 433.48"
       style="fill:#feffff;fill-opacity:1;fill-rule:nonzero;stroke:none;stroke-width:2.45843"
       id="path244" /><path
       d="m 4618.63,345.359 c -6.2,6.2 -11.14,9.192 -20.68,9.192 -14.95,0 -27.49,-11.942 -27.49,-31.012 v -83.777 h -27.7 v 137.929 h 27.19 v -14.953 c 7.11,9.75 21.23,16.641 36.72,16.641 13.31,0 23.42,-3.59 32.96,-13.07 l -21,-20.95"
       style="fill:#feffff;fill-opacity:1;fill-rule:nonzero;stroke:none;stroke-width:2.45843"
       id="path246" /><path
       d="m 4728.48,338.781 c -4.39,10.36 -14.16,17.379 -27.25,17.379 -12.98,0 -23.12,-7.019 -27.4,-17.379 -2.79,-6.25 -3.28,-10.301 -3.6,-18.742 h 62.11 c -0.35,8.441 -1.12,12.492 -3.86,18.742 m -58.25,-38.082 c 0,-23.668 12.56,-38.597 35.11,-38.597 15.54,0 23.66,4.277 33.46,14.148 l 17.67,-16.59 c -14.12,-14.199 -27.47,-21.531 -51.69,-21.531 -34.55,0 -62.03,18.25 -62.03,70.75 0,44.621 23.15,70.5 58.48,70.5 36.98,0 58.54,-27.219 58.54,-66.449 v -12.231 h -89.54"
       style="fill:#feffff;fill-opacity:1;fill-rule:nonzero;stroke:none;stroke-width:2.45843"
       id="path248" /><path
       d="m 4829.94,239.762 c -26.38,0 -37.85,17.687 -37.85,38.109 V 433.48 h 27.75 V 279.5 c 0,-10.648 3.83,-16.09 15.03,-16.09 h 12.23 v -23.648 h -17.16"
       style="fill:#feffff;fill-opacity:1;fill-rule:nonzero;stroke:none;stroke-width:2.45843"
       id="path250" /><path
       d="m 4947.67,300.699 h -32.35 c -16.32,0 -24.8,-7.32 -24.8,-19.859 0,-12.5 7.93,-19.559 25.36,-19.559 10.65,0 18.48,0.821 25.89,7.84 3.99,4.098 5.9,10.649 5.9,20.457 z m 0.61,-60.937 v 12.5 c -10.1,-10.051 -19.62,-14.133 -36.77,-14.133 -17.08,0 -28.54,4.082 -36.96,12.512 -7.09,7.39 -10.9,17.968 -10.9,29.66 0,23.09 16.04,39.738 47.58,39.738 h 36.44 v 9.781 c 0,17.442 -8.63,25.828 -30.15,25.828 -15.22,0 -22.57,-3.488 -30.19,-13.328 l -18.25,17.168 c 13.07,15.223 26.67,19.891 49.5,19.891 37.86,0 56.9,-16.02 56.9,-47.379 v -92.238 h -27.2"
       style="fill:#feffff;fill-opacity:1;fill-rule:nonzero;stroke:none;stroke-width:2.45843"
       id="path252" /><path
       d="m 5098.72,239.762 v 84.047 c 0,21.55 -12.29,30.742 -27.77,30.742 -15.48,0 -28.58,-9.5 -28.58,-30.742 v -84.047 h -27.74 v 137.929 h 27.25 v -13.832 c 9.43,10.289 22.81,15.52 36.65,15.52 14.21,0 25.88,-4.668 34.06,-12.559 10.54,-10.371 13.91,-23.359 13.91,-38.89 v -88.168 h -27.78"
       style="fill:#feffff;fill-opacity:1;fill-rule:nonzero;stroke:none;stroke-width:2.45843"
       id="path254" /><path
       d="m 5215.63,354.551 c -25,0 -28.81,-21.199 -28.81,-45.672 0,-24.481 3.81,-45.969 28.81,-45.969 25.05,0 28.64,21.488 28.64,45.969 0,24.473 -3.59,45.672 -28.64,45.672 m 29.11,-114.789 v 14.648 c -10.29,-12.469 -21.49,-16.281 -36.44,-16.281 -13.91,0 -26.13,4.672 -33.71,12.23 -13.92,13.891 -15.47,37.59 -15.47,58.52 0,20.941 1.55,44.34 15.47,58.25 7.58,7.582 19.53,12.25 33.42,12.25 14.71,0 26.14,-3.59 36.26,-15.52 v 69.621 h 27.68 V 239.762 h -27.21"
       style="fill:#feffff;fill-opacity:1;fill-rule:nonzero;stroke:none;stroke-width:2.45843"
       id="path256" /><path
       d="M 5930.91,547 H 2089.06 v 7.199 H 5930.91 V 547"
       style="fill:#feffff;fill-opacity:1;fill-rule:nonzero;stroke:none;stroke-width:2.45843"
       id="path258" /><path
       d="m 1330.53,1163.6 c -19.04,7.65 -39.56,-2.12 -48.21,-20.67 -2.99,-6.41 -67.25,-161.004 -256.19,-161.004 -50.7,0 -92.442,12.281 -131.427,31.614 -14.437,7.13 -17.39,8.93 -24.719,13.09 -24.398,13.77 -48.265,29.91 -73.25,46.77 -80.203,54.06 -171.015,115.3 -312.574,115.3 -264.402,0 -465.5858,-209.477 -473.9959,-218.387 -14.10941,-14.883 -13.44144,-38.321 1.4531,-52.481 14.8711,-14.102 37.6445,-12.773 52.4766,1.426 8.3359,7.969 188.1332,195.152 420.0662,195.152 75.582,0 133.02,-20.21 184.91,-48.41 -257.019,-7.55 -410.84,-179.477 -417.359,-186.918 -13.469,-15.402 -11.922,-38.789 3.379,-52.324 15.359,-13.574 37.211,-12.051 52.41,3.281 1.52,1.504 144.688,160.34 375.438,161.914 54.75,0.387 112.277,-10.5 152.98,-32.344 53.887,-28.925 114.441,-51.964 190.212,-51.964 240.59,0 321.91,199.445 325.27,207.935 7.48,19.04 -1.84,40.46 -20.87,48.02"
       style="fill:#feffff;fill-opacity:1;fill-rule:nonzero;stroke:none;stroke-width:2.45843"
       id="path260" /><path
       d="m 1215.22,1261.27 c 0,-104.43 -84.66,-189.13 -189.09,-189.13 -104.45,0 -189.11,84.7 -189.11,189.13 0,104.43 84.66,189.09 189.11,189.09 104.43,0 189.09,-84.66 189.09,-189.09"
       style="fill:#feffff;fill-opacity:1;fill-rule:nonzero;stroke:none;stroke-width:2.45843"
       id="path262" /><path
       d="m 1084.22,436.988 c -94.24,35.95 -137.697,62.864 -137.697,122.727 0,53.859 43.457,98.82 121.227,98.82 45.99,0 84.83,-11.211 113.96,-24.035 v 106.379 c -32.6,9.824 -70.31,16.394 -110.97,16.394 -155.646,0 -249.927,-95.769 -249.927,-212.507 0,-86.778 61.355,-158.606 191.577,-205.036 97.27,-35.902 134.69,-70.39 134.69,-133.191 0,-59.84 -44.94,-107.7695 -140.71,-107.7695 -57.835,0 -118.089,20.8595 -158.206,43.2105 V 28.0508 C 892.742,10.8281 946.48,0 1003.38,0 c 172.11,0 270.89,91.3008 270.89,218.5 0,107.738 -64.34,170.629 -190.05,218.488"
       style="fill:#feffff;fill-opacity:1;fill-rule:nonzero;stroke:none;stroke-width:2.45843"
       id="path264" /><path
       d="m 1628.76,740.84 h -131.3 v 35.926 c 0,115.226 40.37,212.48 179.53,212.48 14.64,0 28.77,-1.082 42.33,-2.933 l -0.08,107.347 c -12.14,1.17 -24.58,1.85 -36.22,1.85 -203.6,0 -315.77,-124.24 -315.77,-315.783 V 740.84 H 1265.46 V 638.66 h 101.79 V 17.0586 h 130.21 V 638.66 h 131.3 v 102.18"
       style="fill:#feffff;fill-opacity:1;fill-rule:nonzero;stroke:none;stroke-width:2.45843"
       id="path266" /><path
       d="m 1722.21,17.0586 h 127.77 V 740.84 H 1722.21 V 17.0586"
       style="fill:#feffff;fill-opacity:1;fill-rule:nonzero;stroke:none;stroke-width:2.45843"
       id="path268" /><path
       d="m 2115.07,151.609 v -47.07 h 64.16 V 83.5195 h -64.16 V 18.2891 h -23.41 V 172.648 h 98.66 v -21.039 h -75.25"
       style="fill:#feffff;fill-opacity:1;fill-rule:nonzero;stroke:none;stroke-width:2.45843"
       id="path270" /><path
       d="m 2266.45,103.48 c -4.15,4.122 -9.76,6.27 -16.31,6.27 -6.5,0 -11.89,-2.148 -16.06,-6.27 -6.7,-6.6597 -7.56,-18.1909 -7.56,-30.1402 0,-11.9179 0.86,-23.3984 7.56,-30.0781 4.17,-4.1406 9.56,-6.5429 16.06,-6.5429 6.55,0 12.16,2.4023 16.31,6.5429 6.67,6.6797 7.53,18.1602 7.53,30.0781 0,11.9493 -0.86,23.4805 -7.53,30.1402 m 16.64,-73.5308 c -7.15,-7.3008 -17.99,-12.9609 -32.95,-12.9609 -14.95,0 -25.57,5.6601 -32.72,12.9609 -10.43,10.9024 -13.04,24.8008 -13.04,43.3906 0,18.4805 2.61,32.3322 13.04,43.1012 7.15,7.457 17.77,13.039 32.72,13.039 14.96,0 25.8,-5.582 32.95,-13.039 10.42,-10.769 13,-24.6207 13,-43.1012 0,-18.5898 -2.58,-32.4882 -13,-43.3906"
       style="fill:#feffff;fill-opacity:1;fill-rule:nonzero;stroke:none;stroke-width:2.45843"
       id="path272" /><path
       d="m 2378.93,102.398 c -5,5.043 -8.88,7.352 -16.51,7.352 -11.94,0 -21.89,-9.5 -21.89,-24.6484 V 18.2891 h -22.11 V 128.219 h 21.67 v -11.957 c 5.64,7.777 16.91,13.218 29.26,13.218 10.62,0 18.64,-2.8 26.23,-10.402 l -16.65,-16.68"
       style="fill:#feffff;fill-opacity:1;fill-rule:nonzero;stroke:none;stroke-width:2.45843"
       id="path274" /><path
       d="m 2577.69,18.2891 h -18.86 l -25.79,76.7812 -25.57,-76.7812 h -19.08 l -34.05,109.9299 h 23.39 l 21.25,-77.4104 25.6,77.4104 h 17.13 l 25.36,-77.4104 21.24,77.4104 h 23.62 L 2577.69,18.2891"
       style="fill:#feffff;fill-opacity:1;fill-rule:nonzero;stroke:none;stroke-width:2.45843"
       id="path276" /><path
       d="m 2695.51,18.2891 v 67.3828 c 0,16.7261 -9.82,24.0981 -22.15,24.0981 -12.32,0 -22.33,-7.54 -22.33,-24.0981 V 18.2891 h -22.1 V 172.648 h 22.1 v -55.476 c 7.54,8.219 17.52,12.308 28.42,12.308 24.49,0 38.13,-16.468 38.13,-40.3081 V 18.2891 h -22.07"
       style="fill:#feffff;fill-opacity:1;fill-rule:nonzero;stroke:none;stroke-width:2.45843"
       id="path278" /><path
       d="m 2808.05,66.8203 h -25.77 c -13.01,0 -19.71,-5.8008 -19.71,-15.7305 0,-10.1289 6.24,-15.6289 20.12,-15.6289 8.47,0 14.71,0.5977 20.63,6.2891 3.25,3.1719 4.73,8.4297 4.73,16.2383 z m 0.47,-48.5312 v 9.9492 c -8.02,-7.9766 -15.61,-11.25 -29.3,-11.25 -13.66,0 -22.76,3.2734 -29.48,9.9922 -5.68,5.8398 -8.67,14.3086 -8.67,23.5898 0,18.5078 12.81,31.6602 37.93,31.6602 h 29.05 v 7.8476 c 0,13.8199 -6.9,20.6409 -24.07,20.6409 -12.11,0 -17.98,-2.879 -24.05,-10.707 l -14.49,13.699 c 10.4,12.117 21.24,15.769 39.45,15.769 30.13,0 45.26,-12.789 45.26,-37.6597 V 18.2891 h -21.63"
       style="fill:#feffff;fill-opacity:1;fill-rule:nonzero;stroke:none;stroke-width:2.45843"
       id="path280" /><path
       d="m 2894.65,18.2891 c -20.61,0 -30.17,14.7422 -30.17,30.5312 v 60.5707 h -12.55 v 16.929 h 12.55 v 33.34 h 22.16 v -33.34 h 21.24 v -16.929 h -21.24 V 49.9492 c 0,-8.0195 3.9,-12.8008 12.09,-12.8008 h 9.15 V 18.2891 h -13.23"
       style="fill:#feffff;fill-opacity:1;fill-rule:nonzero;stroke:none;stroke-width:2.45843"
       id="path282" /><path
       d="m 2933.02,130.129 v 42.519 h 24.27 v -22.769 l -24.27,-19.75"
       style="fill:#feffff;fill-opacity:1;fill-rule:nonzero;stroke:none;stroke-width:2.45843"
       id="path284" /><path
       d="m 2999.25,16.9883 c -17.95,0 -33.15,3.0508 -46.16,15.8398 l 14.57,14.4805 c 8.84,-9.0195 20.76,-11.4297 31.59,-11.4297 13.48,0 24.1,4.7617 24.1,15.2109 0,7.3711 -4.15,12.1407 -14.81,12.961 l -17.53,1.5195 c -20.56,1.711 -32.5,11.0195 -32.5,30.2695 0,21.5002 18.41,33.6212 41.4,33.6212 16.51,0 30.57,-3.391 40.78,-12.289 l -13.87,-14.102 c -6.93,5.86 -16.74,8.032 -27.08,8.032 -13.24,0 -19.98,-5.922 -19.98,-14.1332 0,-6.5469 3.45,-11.4297 15.19,-12.5782 l 17.3,-1.4922 c 20.6,-1.6796 32.78,-11.4882 32.78,-31.0078 0,-23 -19.51,-34.9023 -45.78,-34.9023"
       style="fill:#feffff;fill-opacity:1;fill-rule:nonzero;stroke:none;stroke-width:2.45843"
       id="path286" /><path
       d="m 3191.04,18.2891 v 67 c 0,17.1089 -9.75,24.4809 -22.12,24.4809 -12.35,0 -22.76,-7.54 -22.76,-24.4809 v -67 h -22.1 V 128.219 h 21.63 v -11.047 c 7.65,8.219 18.24,12.308 29.34,12.308 11.25,0 20.58,-3.652 27.08,-9.921 8.47,-8.239 11.05,-18.668 11.05,-31.0277 V 18.2891 h -22.12"
       style="fill:#feffff;fill-opacity:1;fill-rule:nonzero;stroke:none;stroke-width:2.45843"
       id="path288" /><path
       d="m 3304.13,97.2188 c -3.48,8.2302 -11.27,13.8832 -21.68,13.8832 -10.43,0 -18.48,-5.653 -21.9,-13.8832 -2.17,-5.0274 -2.62,-8.2891 -2.8,-14.9883 h 49.4 c -0.21,6.6992 -0.84,9.9609 -3.02,14.9883 m -46.38,-30.3985 c 0,-18.8594 9.99,-30.7617 27.95,-30.7617 12.37,0 18.86,3.5 26.65,11.25 l 14.1,-13.2188 c -11.26,-11.2304 -21.89,-17.1015 -41.17,-17.1015 -27.53,0 -49.43,14.5234 -49.43,56.3515 0,35.5902 18.43,56.1402 46.6,56.1402 29.48,0 46.6,-21.64 46.6,-52.8902 v -9.7695 h -71.3"
       style="fill:#feffff;fill-opacity:1;fill-rule:nonzero;stroke:none;stroke-width:2.45843"
       id="path290" /><path
       d="m 3413.2,18.2891 -22.97,37.5117 -23.21,-37.5117 h -26.65 l 37.71,56.1718 -36.16,53.7581 h 26.64 l 21.67,-35.7893 21.49,35.7893 h 26.6 l -35.91,-53.7581 37.46,-56.1718 h -26.67"
       style="fill:#feffff;fill-opacity:1;fill-rule:nonzero;stroke:none;stroke-width:2.45843"
       id="path292" /><path
       d="m 3494.56,18.2891 c -20.54,0 -30.08,14.7422 -30.08,30.5312 v 60.5707 h -12.57 v 16.929 h 12.57 v 33.34 h 22.15 v -33.34 h 21.17 v -16.929 h -21.17 V 49.9492 c 0,-8.0195 3.85,-12.8008 12.09,-12.8008 h 9.08 V 18.2891 h -13.24"
       style="fill:#feffff;fill-opacity:1;fill-rule:nonzero;stroke:none;stroke-width:2.45843"
       id="path294" /><path
       d="m 2122.39,1069.67 v -59.27 h 80.9 v -26.529 h -80.9 v -82.23 h -29.47 V 1096.2 h 124.25 v -26.53 h -94.78"
       style="fill:#feffff;fill-opacity:1;fill-rule:nonzero;stroke:none;stroke-width:2.45843"
       id="path296" /><path
       d="m 2307.78,1009.05 c -5.19,5.2 -12.32,7.9 -20.49,7.9 -8.21,0 -15,-2.7 -20.2,-7.9 -8.45,-8.46 -9.58,-22.956 -9.58,-37.995 0,-15.059 1.13,-29.473 9.58,-37.989 5.2,-5.156 11.99,-8.164 20.2,-8.164 8.17,0 15.3,3.008 20.49,8.164 8.51,8.516 9.57,22.93 9.57,37.989 0,15.039 -1.06,29.535 -9.57,37.995 m 21.04,-92.636 c -9.02,-9.285 -22.67,-16.394 -41.53,-16.394 -18.81,0 -32.18,7.109 -41.25,16.394 -13.06,13.664 -16.41,31.125 -16.41,54.641 0,23.226 3.35,40.735 16.41,54.385 9.07,9.24 22.44,16.35 41.25,16.35 18.86,0 32.51,-7.11 41.53,-16.35 13.13,-13.65 16.39,-31.159 16.39,-54.385 0,-23.516 -3.26,-40.977 -16.39,-54.641"
       style="fill:#feffff;fill-opacity:1;fill-rule:nonzero;stroke:none;stroke-width:2.45843"
       id="path298" /><path
       d="m 2463.7,901.641 v 84.453 c 0,21.546 -12.28,30.856 -27.89,30.856 -15.52,0 -28.66,-9.57 -28.66,-30.856 v -84.453 h -27.87 v 138.539 h 27.33 v -13.92 c 9.58,10.36 22.96,15.53 36.87,15.53 14.24,0 25.96,-4.64 34.21,-12.52 10.63,-10.41 13.86,-23.55 13.86,-39.075 v -88.554 h -27.85"
       style="fill:#feffff;fill-opacity:1;fill-rule:nonzero;stroke:none;stroke-width:2.45843"
       id="path300" /><path
       d="m 2581.13,1016.95 c -25.12,0 -29,-21.286 -29,-45.895 0,-24.543 3.88,-46.153 29,-46.153 25.12,0 28.66,21.61 28.66,46.153 0,24.609 -3.54,45.895 -28.66,45.895 m 29.22,-115.309 v 14.773 c -10.4,-12.559 -21.54,-16.394 -36.61,-16.394 -13.95,0 -26.18,4.656 -33.9,12.324 -13.91,13.945 -15.56,37.676 -15.56,58.711 0,21.062 1.65,44.555 15.56,58.495 7.72,7.6 19.73,12.24 33.6,12.24 14.8,0 26.27,-3.53 36.35,-15.53 v 69.94 h 27.84 V 901.641 h -27.28"
       style="fill:#feffff;fill-opacity:1;fill-rule:nonzero;stroke:none;stroke-width:2.45843"
       id="path302" /><path
       d="m 2739.79,1065.28 h -21.04 l 20.49,44.28 h 30.91 z m 22.12,-163.639 v 13.953 c -9.53,-10.36 -22.88,-15.574 -36.86,-15.574 -14.2,0 -25.94,4.656 -34.16,12.585 -10.64,10.411 -13.91,23.497 -13.91,39.024 v 88.551 h 27.85 v -84.399 c 0,-21.601 12.27,-30.879 27.88,-30.879 15.6,0 28.69,9.559 28.69,30.879 v 84.399 h 27.82 V 901.641 h -27.31"
       style="fill:#feffff;fill-opacity:1;fill-rule:nonzero;stroke:none;stroke-width:2.45843"
       id="path304" /><path
       d="m 2974.49,1007.64 c -6.3,6.31 -11.25,9.31 -20.78,9.31 -15,0 -27.59,-12.03 -27.59,-31.141 v -84.168 h -27.9 v 138.539 h 27.36 v -15 c 7.11,9.8 21.32,16.61 36.89,16.61 13.37,0 23.49,-3.53 33.04,-13.07 l -21.02,-21.08"
       style="fill:#feffff;fill-opacity:1;fill-rule:nonzero;stroke:none;stroke-width:2.45843"
       id="path306" /><path
       d="m 3084.74,1001.11 c -4.36,10.38 -14.22,17.47 -27.31,17.47 -13.13,0 -23.24,-7.09 -27.6,-17.47 -2.74,-6.266 -3.28,-10.34 -3.56,-18.864 h 62.3 c -0.28,8.524 -1.08,12.598 -3.83,18.864 m -58.47,-38.27 c 0,-23.699 12.6,-38.789 35.24,-38.789 15.61,0 23.81,4.414 33.64,14.211 l 17.75,-16.641 c -14.18,-14.16 -27.58,-21.601 -51.91,-21.601 -34.72,0 -62.31,18.32 -62.31,71.035 0,44.815 23.22,70.735 58.75,70.735 37.16,0 58.72,-27.32 58.72,-66.634 V 962.84 h -89.88"
       style="fill:#feffff;fill-opacity:1;fill-rule:nonzero;stroke:none;stroke-width:2.45843"
       id="path308" /><path
       d="m 3223.49,962.84 h -32.52 c -16.45,0 -24.9,-7.332 -24.9,-19.891 0,-12.558 7.98,-19.707 25.43,-19.707 10.68,0 18.58,0.809 25.96,7.969 4.08,4.07 6.03,10.625 6.03,20.418 z m 0.49,-61.199 v 12.617 c -10.09,-10.098 -19.66,-14.238 -36.85,-14.238 -17.18,0 -28.66,4.14 -37.13,12.585 -7.13,7.375 -10.97,18.008 -10.97,29.786 0,23.195 16.13,39.855 47.82,39.855 h 36.64 v 9.871 c 0,17.473 -8.78,25.933 -30.37,25.933 -15.3,0 -22.68,-3.58 -30.3,-13.39 l -18.34,17.18 c 13.13,15.31 26.79,19.96 49.77,19.96 37.98,0 57.08,-16.1 57.08,-47.519 v -92.64 h -27.35"
       style="fill:#feffff;fill-opacity:1;fill-rule:nonzero;stroke:none;stroke-width:2.45843"
       id="path310" /><path
       d="m 3345.27,900.02 c -31.16,0 -61.76,19.14 -61.76,71.035 0,51.925 30.6,70.745 61.76,70.745 19.11,0 32.49,-5.48 45.62,-19.4 l -19.14,-18.54 c -8.7,9.57 -15.58,13.09 -26.48,13.09 -10.66,0 -19.67,-4.33 -25.66,-12.29 -6.04,-7.652 -8.26,-17.504 -8.26,-33.605 0,-16.094 2.22,-26.203 8.26,-33.848 5.99,-7.949 15,-12.336 25.66,-12.336 10.9,0 17.78,3.586 26.48,13.176 l 19.14,-18.34 c -13.13,-13.926 -26.51,-19.687 -45.62,-19.687"
       style="fill:#feffff;fill-opacity:1;fill-rule:nonzero;stroke:none;stroke-width:2.45843"
       id="path312" /><path
       d="m 3503.41,901.641 v 84.953 c 0,21.046 -12.33,30.356 -27.88,30.356 -15.59,0 -28.22,-9.57 -28.22,-30.356 v -84.953 h -27.8 V 1096.2 h 27.8 v -69.94 c 9.66,10.36 22.17,15.53 35.91,15.53 30.81,0 48.03,-20.77 48.03,-50.81 v -89.339 h -27.84"
       style="fill:#feffff;fill-opacity:1;fill-rule:nonzero;stroke:none;stroke-width:2.45843"
       id="path314" /><path
       d="m 3611.77,901.641 c -25.89,0 -37.92,18.632 -37.92,38.562 v 76.227 h -15.82 v 21.29 h 15.82 v 42.05 h 27.82 v -42.05 h 26.78 v -21.29 h -26.78 v -74.848 c 0,-10.156 4.97,-16.113 15.31,-16.113 h 11.47 v -23.828 h -16.68"
       style="fill:#feffff;fill-opacity:1;fill-rule:nonzero;stroke:none;stroke-width:2.45843"
       id="path316" /><path
       d="M 3725.62,901.641 V 1096.2 h 124.32 v -26.53 h -94.8 v -56.84 h 80.84 v -26.236 h -80.84 v -58.422 h 94.8 v -26.531 h -124.32"
       style="fill:#feffff;fill-opacity:1;fill-rule:nonzero;stroke:none;stroke-width:2.45843"
       id="path318" /><path
       d="m 3955.06,1009.05 c -5.2,5.2 -12.31,7.9 -20.47,7.9 -8.2,0 -15.02,-2.7 -20.23,-7.9 -8.44,-8.46 -9.54,-22.956 -9.54,-37.995 0,-15.059 1.1,-29.473 9.54,-37.989 5.21,-5.156 12.03,-8.164 20.23,-8.164 8.16,0 15.27,3.008 20.47,8.164 8.42,8.516 9.59,22.93 9.59,37.989 0,15.039 -1.17,29.535 -9.59,37.995 m 21.05,-92.636 c -9.06,-9.285 -22.73,-16.394 -41.52,-16.394 -18.87,0 -32.27,7.109 -41.25,16.394 -13.14,13.664 -16.39,31.125 -16.39,54.641 0,23.226 3.25,40.735 16.39,54.385 8.98,9.24 22.38,16.35 41.25,16.35 18.79,0 32.46,-7.11 41.52,-16.35 13.11,-13.65 16.39,-31.159 16.39,-54.385 0,-23.516 -3.28,-40.977 -16.39,-54.641"
       style="fill:#feffff;fill-opacity:1;fill-rule:nonzero;stroke:none;stroke-width:2.45843"
       id="path320" /><path
       d="m 4063.73,901.641 c -26.5,0 -37.97,17.781 -37.97,38.32 V 1096.2 h 27.87 V 941.582 c 0,-10.684 3.79,-16.113 15.04,-16.113 h 12.21 v -23.828 h -17.15"
       style="fill:#feffff;fill-opacity:1;fill-rule:nonzero;stroke:none;stroke-width:2.45843"
       id="path322" /><path
       d="m 4181.95,962.84 h -32.5 c -16.36,0 -24.86,-7.332 -24.86,-19.891 0,-12.558 7.93,-19.707 25.47,-19.707 10.62,0 18.55,0.809 25.92,7.969 4.08,4.07 5.97,10.625 5.97,20.418 z m 0.55,-61.199 v 12.617 c -10.06,-10.098 -19.67,-14.238 -36.89,-14.238 -17.17,0 -28.68,4.14 -37.13,12.585 -7.09,7.375 -10.9,18.008 -10.9,29.786 0,23.195 16.07,39.855 47.81,39.855 h 36.56 v 9.871 c 0,17.473 -8.73,25.933 -30.25,25.933 -15.33,0 -22.72,-3.58 -30.39,-13.39 l -18.3,17.18 c 13.14,15.31 26.78,19.96 49.74,19.96 37.97,0 57.05,-16.1 57.05,-47.519 v -92.64 h -27.3"
       style="fill:#feffff;fill-opacity:1;fill-rule:nonzero;stroke:none;stroke-width:2.45843"
       id="path324" /><path
       d="m 4249.2,1040.18 h 27.77 V 901.641 h -27.77 z m 16.93,25.1 h -21.09 l 20.49,44.28 h 30.84 l -30.24,-44.28"
       style="fill:#feffff;fill-opacity:1;fill-rule:nonzero;stroke:none;stroke-width:2.45843"
       id="path326" /><path
       d="m 4389.24,1009.05 c -5.18,5.2 -12.23,7.9 -20.47,7.9 -8.2,0 -15.06,-2.7 -20.2,-7.9 -8.47,-8.46 -9.53,-22.956 -9.53,-37.995 0,-15.059 1.06,-29.473 9.53,-37.989 5.14,-5.156 12,-8.164 20.2,-8.164 8.24,0 15.29,3.008 20.47,8.164 8.44,8.516 9.65,22.93 9.65,37.989 0,15.039 -1.21,29.535 -9.65,37.995 m 21.07,-92.636 c -9.06,-9.285 -22.67,-16.394 -41.54,-16.394 -18.83,0 -32.19,7.109 -41.23,16.394 -13.16,13.664 -16.41,31.125 -16.41,54.641 0,23.226 3.25,40.735 16.41,54.385 9.04,9.24 22.4,16.35 41.23,16.35 18.87,0 32.48,-7.11 41.54,-16.35 13.13,-13.65 16.41,-31.159 16.41,-54.385 0,-23.516 -3.28,-40.977 -16.41,-54.641"
       style="fill:#feffff;fill-opacity:1;fill-rule:nonzero;stroke:none;stroke-width:2.45843"
       id="path328" /><path
       d="m 4515.39,900.02 c -31.07,0 -61.68,19.14 -61.68,71.035 0,51.925 30.61,70.745 61.68,70.745 19.18,0 32.48,-5.48 45.68,-19.4 l -19.14,-18.54 c -8.73,9.57 -15.58,13.09 -26.54,13.09 -10.66,0 -19.65,-4.33 -25.66,-12.29 -6,-7.652 -8.21,-17.504 -8.21,-33.605 0,-16.094 2.21,-26.203 8.21,-33.848 6.01,-7.949 15,-12.336 25.66,-12.336 10.96,0 17.81,3.586 26.54,13.176 l 19.14,-18.34 c -13.2,-13.926 -26.5,-19.687 -45.68,-19.687"
       style="fill:#feffff;fill-opacity:1;fill-rule:nonzero;stroke:none;stroke-width:2.45843"
       id="path330" /><path
       d="m 4673.55,901.641 v 84.953 c 0,21.046 -12.26,30.356 -27.87,30.356 -15.58,0 -28.14,-9.57 -28.14,-30.356 v -84.953 h -27.85 V 1096.2 h 27.85 v -69.94 c 9.55,10.36 22.13,15.53 35.82,15.53 30.82,0 48.05,-20.77 48.05,-50.81 v -89.339 h -27.86"
       style="fill:#feffff;fill-opacity:1;fill-rule:nonzero;stroke:none;stroke-width:2.45843"
       id="path332" /><path
       d="m 4781.89,901.641 c -25.82,0 -37.87,18.632 -37.87,38.562 v 76.227 h -15.82 v 21.29 h 15.82 v 42.05 h 27.78 v -42.05 h 26.83 v -21.29 h -26.83 v -74.848 c 0,-10.156 4.92,-16.113 15.35,-16.113 h 11.48 v -23.828 h -16.74"
       style="fill:#feffff;fill-opacity:1;fill-rule:nonzero;stroke:none;stroke-width:2.45843"
       id="path334" /><path
       d="m 4903.16,962.84 h -32.53 c -16.39,0 -24.89,-7.332 -24.89,-19.891 0,-12.558 7.99,-19.707 25.47,-19.707 10.63,0 18.5,0.809 25.92,7.969 4.12,4.07 6.03,10.625 6.03,20.418 z m 0.57,-61.199 v 12.617 c -10.14,-10.098 -19.69,-14.238 -36.95,-14.238 -17.15,0 -28.65,4.14 -37.07,12.585 -7.13,7.375 -10.92,18.008 -10.92,29.786 0,23.195 16.03,39.855 47.79,39.855 h 36.58 v 9.871 c 0,17.473 -8.69,25.933 -30.31,25.933 -15.33,0 -22.65,-3.58 -30.31,-13.39 l -18.34,17.18 c 13.14,15.31 26.76,19.96 49.73,19.96 37.95,0 57.09,-16.1 57.09,-47.519 v -92.64 h -27.29"
       style="fill:#feffff;fill-opacity:1;fill-rule:nonzero;stroke:none;stroke-width:2.45843"
       id="path336" /><path
       d="m 5125.56,1115.05 h -21.07 l 20.51,44.22 h 30.84 z M 5035.57,901.641 V 1096.2 h 124.29 v -26.51 h -94.78 v -56.84 H 5146 v -26.256 h -80.92 v -58.422 h 94.78 v -26.531 h -124.29"
       style="fill:#feffff;fill-opacity:1;fill-rule:nonzero;stroke:none;stroke-width:2.45843"
       id="path338" /><path
       d="m 5193.46,1040.18 h 27.81 V 901.641 h -27.81 z m -0.86,56.84 h 29.55 v -29.52 h -29.55 v 29.52"
       style="fill:#feffff;fill-opacity:1;fill-rule:nonzero;stroke:none;stroke-width:2.45843"
       id="path340" /><path
       d="m 2829.24,1040.18 h 27.82 V 901.641 h -27.82 z m -0.87,56.84 h 29.55 v -29.52 h -29.55 v 29.52"
       style="fill:#feffff;fill-opacity:1;fill-rule:nonzero;stroke:none;stroke-width:2.45843"
       id="path342" /><path
       d="m 5338.22,1007.64 c -6.27,6.31 -11.21,9.31 -20.74,9.31 -15.06,0 -27.56,-12.03 -27.56,-31.141 v -84.168 h -27.95 v 138.539 h 27.31 v -15 c 7.13,9.8 21.35,16.61 36.89,16.61 13.42,0 23.52,-3.53 33.01,-13.07 l -20.96,-21.08"
       style="fill:#feffff;fill-opacity:1;fill-rule:nonzero;stroke:none;stroke-width:2.45843"
       id="path344" /><path
       d="m 5448.44,1001.11 c -4.3,10.38 -14.18,17.47 -27.29,17.47 -13.12,0 -23.24,-7.09 -27.6,-17.47 -2.73,-6.266 -3.3,-10.34 -3.59,-18.864 h 62.29 c -0.22,8.524 -1.08,12.598 -3.81,18.864 m -58.48,-38.27 c 0,-23.699 12.62,-38.789 35.29,-38.789 15.59,0 23.81,4.414 33.6,14.211 l 17.71,-16.641 c -14.18,-14.16 -27.5,-21.601 -51.87,-21.601 -34.73,0 -62.31,18.32 -62.31,71.035 0,44.815 23.25,70.735 58.77,70.735 37.13,0 58.77,-27.32 58.77,-66.634 V 962.84 h -89.96"
       style="fill:#feffff;fill-opacity:1;fill-rule:nonzero;stroke:none;stroke-width:2.45843"
       id="path346" /><path
       d="m 5587.19,962.84 h -32.54 c -16.39,0 -24.81,-7.332 -24.81,-19.891 0,-12.558 7.89,-19.707 25.36,-19.707 10.72,0 18.59,0.809 25.99,7.969 4.14,4.07 6,10.625 6,20.418 z m 0.52,-61.199 v 12.617 c -10.09,-10.098 -19.66,-14.238 -36.87,-14.238 -17.23,0 -28.67,4.14 -37.13,12.585 -7.11,7.375 -10.96,18.008 -10.96,29.786 0,23.195 16.18,39.855 47.86,39.855 h 36.58 v 9.871 c 0,17.473 -8.77,25.933 -30.31,25.933 -15.38,0 -22.72,-3.58 -30.34,-13.39 l -18.3,17.18 c 13.11,15.31 26.8,19.96 49.69,19.96 38.01,0 57.09,-16.1 57.09,-47.519 v -92.64 h -27.31"
       style="fill:#feffff;fill-opacity:1;fill-rule:nonzero;stroke:none;stroke-width:2.45843"
       id="path348" /><path
       d="m 5738.69,901.641 v 84.453 c 0,21.546 -12.24,30.856 -27.83,30.856 -15.55,0 -28.61,-9.57 -28.61,-30.856 v -84.453 h -27.91 v 138.539 h 27.32 v -13.92 c 9.53,10.36 22.99,15.53 36.88,15.53 14.21,0 25.91,-4.64 34.17,-12.52 10.65,-10.41 13.89,-23.55 13.89,-39.075 v -88.554 h -27.91"
       style="fill:#feffff;fill-opacity:1;fill-rule:nonzero;stroke:none;stroke-width:2.45843"
       id="path350" /><path
       d="m 5890.31,901.641 v 84.453 c 0,21.546 -12.24,30.856 -27.89,30.856 -15.53,0 -28.67,-9.57 -28.67,-30.856 v -84.453 h -27.77 v 138.539 h 27.2 v -13.92 c 9.63,10.36 22.97,15.53 36.94,15.53 14.18,0 25.99,-4.64 34.12,-12.52 10.66,-10.41 13.96,-23.55 13.96,-39.075 v -88.554 h -27.89"
       style="fill:#feffff;fill-opacity:1;fill-rule:nonzero;stroke:none;stroke-width:2.45843"
       id="path352" /><path
       d="m 2171.77,799.637 c -6.57,7.199 -15.3,10.48 -26.49,10.48 h -28.61 V 696.855 h 28.61 c 11.19,0 19.92,3.301 26.49,10.508 8.06,8.965 8.32,25.782 8.32,47.207 0,21.446 -0.26,36.094 -8.32,45.067 m 16.16,-109.324 c -9.83,-9.864 -24.05,-14.649 -40.22,-14.649 h -54.66 v 155.664 h 54.66 c 16.17,0 30.39,-4.805 40.22,-14.66 16.83,-16.824 15.74,-39.578 15.74,-62.098 0,-22.5 1.09,-47.441 -15.74,-64.257"
       style="fill:#feffff;fill-opacity:1;fill-rule:nonzero;stroke:none;stroke-width:2.45843"
       id="path354" /><path
       d="m 2277.54,806.609 h -16.82 l 16.39,35.422 h 24.71 z m 15.32,-81.98 h -26.03 c -13.13,0 -19.9,-5.938 -19.9,-15.957 0,-10.059 6.36,-15.742 20.36,-15.742 8.52,0 14.84,0.644 20.74,6.328 3.3,3.281 4.83,8.535 4.83,16.387 z m 0.44,-48.965 v 10.059 c -8.09,-8.106 -15.76,-11.407 -29.5,-11.407 -13.79,0 -22.98,3.301 -29.76,10.098 -5.68,5.899 -8.74,14.414 -8.74,23.828 0,18.563 12.87,31.914 38.28,31.914 h 29.28 v 7.852 c 0,14.004 -7,20.781 -24.25,20.781 -12.27,0 -18.17,-2.824 -24.28,-10.723 l -14.65,13.789 c 10.5,12.247 21.42,15.938 39.8,15.938 30.39,0 45.69,-12.871 45.69,-38.02 v -74.109 h -21.87"
       style="fill:#feffff;fill-opacity:1;fill-rule:nonzero;stroke:none;stroke-width:2.45843"
       id="path356" /><path
       d="m 2442.61,767.918 c -20.14,0 -23.2,-17.039 -23.2,-36.727 0,-19.687 3.06,-36.953 23.2,-36.953 20.11,0 22.95,17.266 22.95,36.953 0,19.688 -2.84,36.727 -22.95,36.727 m 32.78,-83.738 c -6.12,-6.133 -15.96,-9.864 -27.1,-9.864 -12.03,0 -21,3.086 -29.3,13.145 v -11.797 h -21.87 v 155.664 h 22.29 v -55.969 c 8.12,9.61 17.28,12.434 29.1,12.434 11.14,0 20.76,-3.691 26.88,-9.824 11.16,-11.153 12.48,-29.922 12.48,-46.778 0,-16.855 -1.32,-35.839 -12.48,-47.011"
       style="fill:#feffff;fill-opacity:1;fill-rule:nonzero;stroke:none;stroke-width:2.45843"
       id="path358" /><path
       d="m 2582.72,675.664 v 67.969 c 0,16.863 -9.84,24.277 -22.29,24.277 -12.48,0 -22.51,-7.656 -22.51,-24.277 v -67.969 h -22.3 v 155.664 h 22.3 v -55.976 c 7.65,8.289 17.7,12.441 28.62,12.441 24.71,0 38.5,-16.582 38.5,-40.664 v -71.465 h -22.32"
       style="fill:#feffff;fill-opacity:1;fill-rule:nonzero;stroke:none;stroke-width:2.45843"
       id="path360" /><path
       d="m 2662.73,767.461 v -91.797 h -22.29 v 91.797 h -12.69 v 17.09 h 12.69 v 17.051 c 0,15.937 9.62,30.8 30.38,30.8 h 14 v -19.015 h -9.83 c -8.31,0 -12.26,-4.805 -12.26,-12.879 v -15.957 h 22.09 v -17.09 h -22.09"
       style="fill:#feffff;fill-opacity:1;fill-rule:nonzero;stroke:none;stroke-width:2.45843"
       id="path362" /><path
       d="m 2773.14,675.664 v 11.152 c -7.63,-8.339 -18.35,-12.5 -29.51,-12.5 -11.38,0 -20.77,3.731 -27.31,10.098 -8.54,8.281 -11.19,18.789 -11.19,31.231 v 70.859 h 22.33 v -67.539 c 0,-17.285 9.83,-24.727 22.28,-24.727 12.48,0 22.97,7.637 22.97,24.727 v 67.539 H 2795 v -110.84 h -21.86"
       style="fill:#feffff;fill-opacity:1;fill-rule:nonzero;stroke:none;stroke-width:2.45843"
       id="path364" /><path
       d="m 2827.98,786.504 h 22.31 v -110.84 h -22.31 z m -0.64,45.469 h 23.62 v -23.614 h -23.62 v 23.614"
       style="fill:#feffff;fill-opacity:1;fill-rule:nonzero;stroke:none;stroke-width:2.45843"
       id="path366" /><path
       d="m 2913.04,675.664 c -21.21,0 -30.39,14.16 -30.39,30.606 v 125.058 h 22.3 V 707.559 c 0,-8.496 3.05,-12.911 12.02,-12.911 h 9.85 v -18.984 h -13.78"
       style="fill:#feffff;fill-opacity:1;fill-rule:nonzero;stroke:none;stroke-width:2.45843"
       id="path368" /><path
       d="m 3060,760.496 c -5.09,5.031 -8.97,7.414 -16.66,7.414 -12.02,0 -22.06,-9.629 -22.06,-24.933 v -67.313 h -22.31 v 110.84 h 21.87 v -12.031 c 5.69,7.871 17.05,13.32 29.48,13.32 10.71,0 18.81,-2.824 26.48,-10.469 L 3060,760.496"
       style="fill:#feffff;fill-opacity:1;fill-rule:nonzero;stroke:none;stroke-width:2.45843"
       id="path370" /><path
       d="m 3142.79,761.582 c -4.16,4.16 -9.89,6.328 -16.43,6.328 -6.56,0 -12.04,-2.168 -16.16,-6.328 -6.8,-6.797 -7.65,-18.379 -7.65,-30.391 0,-12.031 0.85,-23.632 7.65,-30.39 4.12,-4.18 9.6,-6.582 16.16,-6.582 6.54,0 12.27,2.402 16.43,6.582 6.74,6.758 7.61,18.359 7.61,30.39 0,12.012 -0.87,23.594 -7.61,30.391 m 16.8,-74.121 c -7.2,-7.422 -18.13,-13.145 -33.23,-13.145 -15.08,0 -25.8,5.723 -33,13.145 -10.48,10.918 -13.14,24.922 -13.14,43.73 0,18.582 2.66,32.559 13.14,43.524 7.2,7.414 17.92,13.078 33,13.078 15.1,0 26.03,-5.664 33.23,-13.078 10.5,-10.965 13.13,-24.942 13.13,-43.524 0,-18.808 -2.63,-32.812 -13.13,-43.73"
       style="fill:#feffff;fill-opacity:1;fill-rule:nonzero;stroke:none;stroke-width:2.45843"
       id="path372" /><path
       d="m 3335.59,675.664 v 67.539 c 0,17.293 -9.82,24.707 -22.33,24.707 -12.02,0 -22.92,-7.656 -22.92,-23.605 v -68.641 h -22.31 v 67.539 c 0,17.293 -9.86,24.707 -22.33,24.707 -12.45,0 -22.95,-7.656 -22.95,-24.707 v -67.539 h -22.27 v 110.84 h 21.85 v -11.152 c 7.45,8.093 18.37,12.441 29.52,12.441 13.78,0 24.47,-5.449 31.49,-16.152 8.96,10.918 20.09,16.152 34.75,16.152 11.34,0 21.4,-3.691 28.01,-10.039 8.52,-8.32 11.77,-18.789 11.77,-31.27 v -70.82 h -22.28"
       style="fill:#feffff;fill-opacity:1;fill-rule:nonzero;stroke:none;stroke-width:2.45843"
       id="path374" /><path
       d="m 3456.9,675.664 v 67.969 c 0,16.863 -9.85,24.277 -22.32,24.277 -12.43,0 -22.49,-7.656 -22.49,-24.277 v -67.969 h -22.3 v 155.664 h 22.3 v -55.976 c 7.65,8.289 17.7,12.441 28.62,12.441 24.72,0 38.45,-16.582 38.45,-40.664 v -71.465 h -22.26"
       style="fill:#feffff;fill-opacity:1;fill-rule:nonzero;stroke:none;stroke-width:2.45843"
       id="path376" /><path
       d="m 3570.37,724.629 h -26.02 c -13.11,0 -19.92,-5.938 -19.92,-15.957 0,-10.078 6.36,-15.742 20.36,-15.742 8.49,0 14.85,0.644 20.72,6.328 3.3,3.281 4.86,8.535 4.86,16.387 z m 0.43,-48.965 v 10.059 c -8.1,-8.106 -15.73,-11.407 -29.53,-11.407 -13.76,0 -22.95,3.301 -29.73,10.098 -5.69,5.899 -8.75,14.414 -8.75,23.828 0,18.563 12.9,31.914 38.26,31.914 h 29.32 v 7.852 c 0,14.004 -6.99,20.781 -24.28,20.781 -12.26,0 -18.13,-2.824 -24.28,-10.703 l -14.63,13.769 c 10.48,12.247 21.4,15.938 39.78,15.938 30.39,0 45.7,-12.891 45.7,-38.02 v -74.109 h -21.86"
       style="fill:#feffff;fill-opacity:1;fill-rule:nonzero;stroke:none;stroke-width:2.45843"
       id="path378" /><path
       d="m 3624.55,786.504 h 22.33 v -110.84 h -22.33 z m -0.63,45.469 h 23.6 v -23.614 h -23.6 v 23.614"
       style="fill:#feffff;fill-opacity:1;fill-rule:nonzero;stroke:none;stroke-width:2.45843"
       id="path380" /><path
       d="m 3747.44,675.664 v 67.539 c 0,17.293 -9.81,24.707 -22.32,24.707 -12.43,0 -22.95,-7.656 -22.95,-24.707 v -67.539 h -22.29 v 110.84 h 21.87 v -11.152 c 7.65,8.289 18.34,12.441 29.48,12.441 11.41,0 20.82,-3.691 27.35,-10.039 8.57,-8.32 11.15,-18.789 11.15,-31.27 v -70.82 h -22.29"
       style="fill:#feffff;fill-opacity:1;fill-rule:nonzero;stroke:none;stroke-width:2.45843"
       id="path382" /><path
       d="m 3869.22,675.664 v 67.539 c 0,17.293 -9.88,24.707 -22.33,24.707 -12.47,0 -22.98,-7.656 -22.98,-24.707 v -67.539 h -22.27 v 110.84 h 21.86 v -11.152 c 7.66,8.289 18.37,12.441 29.51,12.441 11.38,0 20.75,-3.691 27.35,-10.039 8.49,-8.32 11.11,-18.789 11.11,-31.27 v -70.82 h -22.25"
       style="fill:#feffff;fill-opacity:1;fill-rule:nonzero;stroke:none;stroke-width:2.45843"
       id="path384" /></g></svg>
