<?xml version="1.0" encoding="UTF-8" standalone="no"?>
<!-- Created with Inkscape (http://www.inkscape.org/) -->

<svg
   width="14mm"
   height="20mm"
   viewBox="0 0 14 20"
   version="1.1"
   id="svg2655"
   xml:space="preserve"
   sodipodi:docname="ucd-white.svg"
   inkscape:version="1.2.2 (732a01da63, 2022-12-09, custom)"
   xmlns:inkscape="http://www.inkscape.org/namespaces/inkscape"
   xmlns:sodipodi="http://sodipodi.sourceforge.net/DTD/sodipodi-0.dtd"
   xmlns="http://www.w3.org/2000/svg"
   xmlns:svg="http://www.w3.org/2000/svg"><sodipodi:namedview
     id="namedview25303"
     pagecolor="#ffffff"
     bordercolor="#000000"
     borderopacity="0.25"
     inkscape:showpageshadow="2"
     inkscape:pageopacity="0.0"
     inkscape:pagecheckerboard="0"
     inkscape:deskcolor="#d1d1d1"
     inkscape:document-units="mm"
     showgrid="false"
     inkscape:zoom="5.6568543"
     inkscape:cx="36.681164"
     inkscape:cy="57.982756"
     inkscape:window-width="1920"
     inkscape:window-height="960"
     inkscape:window-x="0"
     inkscape:window-y="0"
     inkscape:window-maximized="1"
     inkscape:current-layer="svg2655"
     showguides="true" /><defs
     id="defs2652"><clipPath
       clipPathUnits="userSpaceOnUse"
       id="clipPath487"><path
         d="M 0.03,841.02 H 595.05 V 0 H 0.03 Z"
         id="path485" /></clipPath><clipPath
       clipPathUnits="userSpaceOnUse"
       id="clipPath7756"><g
         id="g7760"
         style="stroke-width:0.999999"><path
           d="m 222.79855,46.895811 h 36.24686 v 52.281665 h -36.24686 z"
           id="path7758"
           style="stroke-width:0.999999" /></g></clipPath><clipPath
       clipPathUnits="userSpaceOnUse"
       id="clipPath7767"><g
         id="g7771"
         style="stroke-width:0.999999"><path
           d="m 222.79855,46.895811 h 36.24686 v 52.281665 h -36.24686 z"
           id="path7769"
           style="stroke-width:0.999999" /></g></clipPath><clipPath
       clipPathUnits="userSpaceOnUse"
       id="clipPath7779"><g
         id="g7783"
         style="stroke-width:0.352777"
         transform="matrix(2.8346458,0,0,-2.8346458,-208.23497,664.39501)"><path
           d="M 73.460667,-62.302315 H 283.36344 V 234.38379 H 73.460667 Z"
           id="path7781"
           style="stroke-width:0.352777" /></g></clipPath><clipPath
       clipPathUnits="userSpaceOnUse"
       id="clipPath7791"><g
         id="g7795"
         style="stroke-width:0.999999"><path
           d="m 222.79855,46.895811 h 36.24686 v 52.281665 h -36.24686 z"
           id="path7793"
           style="stroke-width:0.999999" /></g></clipPath><clipPath
       clipPathUnits="userSpaceOnUse"
       id="clipPath7797"><g
         id="g7801"
         style="stroke-width:0.999999"><path
           d="m 222.79855,46.895811 h 36.24686 v 52.281665 h -36.24686 z"
           id="path7799"
           style="stroke-width:0.999999" /></g></clipPath><clipPath
       clipPathUnits="userSpaceOnUse"
       id="clipPath481"><path
         d="M 0,841 H 595 V 0 H 0 Z"
         id="path479"
         inkscape:connector-curvature="0" /></clipPath><clipPath
       clipPathUnits="userSpaceOnUse"
       id="clipPath487-3"><path
         d="M 0.03,841.02 H 595.05 V 0 H 0.03 Z"
         id="path485-6"
         inkscape:connector-curvature="0" /></clipPath><clipPath
       clipPathUnits="userSpaceOnUse"
       id="clipPath511"><path
         d="m 423.32,531.462 h 102.747 v -148.2 H 423.32 Z"
         id="path509"
         inkscape:connector-curvature="0" /></clipPath><clipPath
       clipPathUnits="userSpaceOnUse"
       id="clipPath523"><path
         d="m 423.32,531.462 h 102.747 v -148.2 H 423.32 Z"
         id="path521"
         inkscape:connector-curvature="0" /></clipPath><clipPath
       clipPathUnits="userSpaceOnUse"
       id="clipPath28732"><g
         id="g28736"><path
           d="m 128.48669,1.5753208 h 36.24686 V 53.856986 h -36.24686 z"
           id="path28734"
           inkscape:connector-curvature="0"
           style="stroke-width:0.352778" /></g></clipPath><clipPath
       clipPathUnits="userSpaceOnUse"
       id="clipPath28738"><g
         id="g28742"><path
           d="m 128.48669,1.5753208 h 36.24686 V 53.856986 h -36.24686 z"
           id="path28740"
           inkscape:connector-curvature="0"
           style="stroke-width:0.352778" /></g></clipPath><inkscape:path-effect
       effect="fill_between_many"
       method="originald"
       linkedpaths="#path29899,0,1"
       id="path-effect29965"
       is_visible="true"
       lpeversion="0"
       join="true"
       close="true"
       autoreverse="true" /></defs><g
     id="g38516"
     transform="matrix(0.99223218,0,0,0.99223218,-4.2365904e-4,-2.6930647e-4)"><path
       d="M 0,0"
       id="path30831"
       inkscape:original-d="M 0,0"
       inkscape:path-effect="#path-effect29965"
       class="UnoptimicedTransforms"
       transform="scale(1.1111111)" /><path
       id="path29859"
       style="fill:none;stroke:#ffffff;stroke-width:0.651933;stroke-linecap:butt;stroke-linejoin:miter;stroke-miterlimit:4;stroke-dasharray:none;stroke-opacity:1"
       d="M 223.03597,78.034446 V 61.338533 h 35.72122 V 77.97271"
       clip-path="url(#clipPath7756)"
       transform="matrix(0.38254329,0,0,0.38254329,-85.23009,-17.939678)"
       sodipodi:nodetypes="cccc" /><path
       id="path29861"
       style="fill:#ffffff;fill-opacity:1;fill-rule:nonzero;stroke:none;stroke-width:0.18556"
       d="m 9.4182223,13.232388 -2.2232116,4.87274 c 0.1869109,0.132523 0.4680147,0.32807 0.7336033,0.452227 L 9.7278031,13.35695 C 9.6234873,13.307827 9.5203804,13.266532 9.4182223,13.232388" /><path
       id="path29863"
       style="fill:#ffffff;fill-opacity:1;fill-rule:nonzero;stroke:none;stroke-width:0.18556"
       d="M 5.2292888,13.679622 C 4.8402193,13.661807 4.4711225,13.539271 4.10864,13.264643 3.8480474,15.995141 4.9944727,17.84278 7.2419754,19.146559 L 7.4012167,18.734143 C 5.5882639,17.433334 5.1573592,15.769096 5.2292888,13.679622" /><path
       id="path29865"
       style="fill:#ffffff;fill-opacity:1;fill-rule:nonzero;stroke:none;stroke-width:0.18556"
       d="m 5.4971685,13.675978 1.8634297,3.17166 0.1921709,-0.3722 -1.6747629,-2.850877 c -0.1294184,0.02537 -0.2561395,0.04292 -0.3808377,0.05142" /><path
       id="path29867"
       style="fill:#ffffff;fill-opacity:1;fill-rule:nonzero;stroke:none;stroke-width:0.18556"
       d="m 6.3502058,13.504588 1.4565452,2.478678 0.1920368,-0.3722 -1.3045873,-2.220513 c -0.1170049,0.0417 -0.2314429,0.07989 -0.3439947,0.114035" /><path
       id="path29869"
       style="fill:#ffffff;fill-opacity:1;fill-rule:nonzero;stroke:none;stroke-width:0.18556"
       d="M 7.1399514,13.224967 8.252636,15.118489 8.4448064,14.746964 7.4813787,13.107018 c -0.1156541,0.03725 -0.2248285,0.07503 -0.3414273,0.117949" /><path
       id="path29871"
       style="fill:#ffffff;fill-opacity:1;fill-rule:nonzero;stroke:none;stroke-width:0.18556"
       d="M 7.9511498,12.982591 8.6989224,14.254926 8.890825,13.882591 8.328479,12.925236 c -0.1290165,0.01215 -0.2546557,0.03199 -0.3773292,0.05735" /><path
       id="path29873"
       style="fill:#ffffff;fill-opacity:1;fill-rule:nonzero;stroke:none;stroke-width:0.18556"
       d="M 9.7950118,13.147909 9.9369816,12.756141 C 9.251284,12.023752 7.8977085,11.851147 7.0798957,12.120108 6.2066181,12.407018 5.2597892,12.346829 4.7386009,11.82888 c -0.3159238,0.141835 -0.6329296,0.439406 -0.7632927,0.81498 0.8603244,0.780837 1.8421031,0.656815 2.995815,0.290823 0.9650462,-0.306208 1.7681537,-0.331983 2.8238886,0.213226" /><path
       id="path29875"
       style="fill:#ffffff;fill-opacity:1;fill-rule:nonzero;stroke:none;stroke-width:0.18556"
       d="M 8.965727,13.123482 6.334013,17.1139 c 0.1812412,0.340082 0.4785426,0.636167 0.5425075,0.695007 L 9.2855637,13.191768 C 9.177465,13.161539 9.0708538,13.139273 8.965727,13.123482" /><path
       id="path29925"
       style="fill:#ffffff;fill-opacity:1;stroke-width:0.262998"
       d="M -0.03382798,5.5250246 C -0.02255198,7.9339531 -0.10620413,10.523692 0,12.75181 h 3.7035418 c 0.1632658,-0.575596 0.6344498,-1.018706 1.0522019,-1.165005 0.5211846,0.518214 1.4966982,0.6366 2.3699679,0.349555 0.8179469,-0.269092 2.2666811,-0.09639 2.9959614,0.743419 l -0.0231,0.07203 3.732718,-0.0087 0.0511,-0.979673 0.01432,-6.2384204 z m 7.13235818,0.438712 c 0.00879,-8.31e-5 0.017526,0 0.026368,0 0.3697691,0 0.7353486,0.0674 0.9774524,0.1804859 l 0.018484,0.00843 V 6.6848659 H 8.0009628 L 7.9955239,6.65986 C 7.9311493,6.3653974 7.5813833,6.2225077 7.0792308,6.2225077 c -1.0012053,0 -1.1095549,0.9954372 -1.1095549,1.4235026 0,0.3241567 0.079406,1.3816432 1.1005846,1.3816432 0.6106567,0 0.8611644,-0.2052551 0.9641336,-0.536294 l 0.00706,-0.022286 H 8.1716583 L 8.1284423,9.0803883 8.11322,9.0885413 C 7.8757071,9.2172812 7.4481793,9.3106151 7.0974419,9.3106151 6.5244386,9.3106151 6.1005944,9.1774679 5.8378442,8.9148502 5.553233,8.630239 5.3966863,8.1845649 5.3966863,7.6598734 c 0,-0.4931132 0.1418298,-0.9027592 0.4218591,-1.2171939 C 6.0907372,6.1385996 6.5446753,5.9689619 7.0985291,5.9637387 Z M 1.6874789,6.0319626 H 2.589638 v 0.1280256 l -0.028814,0.003 C 2.3940255,6.1797183 2.3940665,6.2987736 2.3942006,6.4736728 v 1.4862924 c 0,0.3977017 0.057536,0.6365306 0.1981541,0.824148 0.1357635,0.1748945 0.3251309,0.2601281 0.5795125,0.2601281 h 0.00652 c 0.254248,0 0.4437495,-0.085234 0.579513,-0.2601281 C 3.8985205,8.5965289 3.9560567,8.3576669 3.9560567,7.9599652 V 6.4736728 c 0,-0.1748992 1.757e-4,-0.2939492 -0.1663518,-0.3106864 l -0.029082,-0.003 V 6.0319626 h 0.902431 v 0.1296562 l -0.030445,0.00137 C 4.469991,6.1706765 4.4700626,6.2909194 4.4703345,6.4698672 v 1.5811565 c 0,0.2755736 -0.044746,0.519805 -0.1258511,0.6863367 -0.1792124,0.3858257 -0.5609716,0.573261 -1.1660928,0.573261 h -0.00652 c -0.6053926,0 -0.9868762,-0.187703 -1.1660928,-0.5735329 C 1.9249408,8.570561 1.8799244,8.3265973 1.8799244,8.0510237 V 6.4698672 C 1.8801963,6.2909199 1.8802721,6.1706817 1.717922,6.1629864 l -0.030445,-0.00137 z m 7.3602474,0 h 1.4438887 c 0.575971,0.00458 0.978818,0.133213 1.268025,0.4044628 0.274082,0.2651819 0.418868,0.6616401 0.418868,1.1462501 0,0.7821812 -0.328956,1.1730133 -0.604791,1.3634316 -0.293659,0.2021591 -0.66669,0.2962799 -1.17316,0.2962799 H 9.0474543 V 9.0996835 l 0.028541,-0.00326 C 9.2378027,9.0790118 9.352339,9.0072022 9.3589561,8.7876389 V 6.4867123 c 0,-0.2492574 -0.1631222,-0.3166055 -0.2821453,-0.3272675 l -0.029082,-0.00247 z m 1.2759067,0.2555073 c -0.4505238,0.00174 -0.4504002,0.032186 -0.4504002,0.2272386 v 2.084017 c 0,0.3314449 0.053574,0.3772814 0.4406142,0.3772814 0.638862,0 1.2914,-0.16339 1.2914,-1.3751198 0,-0.8802866 -0.392777,-1.2976268 -1.236492,-1.3134172 -0.01549,0 -0.03059,-5.52e-5 -0.04512,0 z M 2.2634093,9.860282 h 0.581474 c 0.2769216,0 0.5073741,0.06003 0.6400316,0.16232 0.1323861,0.102294 0.2147135,0.301769 0.2147135,0.530106 0,0.202563 -0.08311,0.390131 -0.2177953,0.496204 C 3.3475571,11.154175 3.1282,11.215341 2.8757035,11.215341 H 2.2634093 Z m 1.937559,-0.00205 0.2814705,0.00205 v 0.765707 c 0,0.124561 0.00963,0.21747 0.086323,0.286565 0.076516,0.06937 0.1727785,0.108023 0.3166381,0.108023 0.1415637,0 0.221055,-0.02558 0.2964925,-0.09602 0.075709,-0.07112 0.098794,-0.137735 0.099068,-0.259462 l 0.00184,-0.8048348 h 0.2804632 l 0.00147,0.8071398 c 3.13e-4,0.168958 -0.063874,0.326303 -0.1780447,0.421846 -0.1134939,0.09568 -0.3010665,0.160673 -0.4890563,0.160673 -0.213357,0 -0.398054,-0.0539 -0.5097947,-0.151337 -0.1110669,-0.09784 -0.1861761,-0.242175 -0.1862903,-0.40695 z m 1.8635911,0.00205 h 0.6903722 c 0.1848874,0 0.3402601,0.034237 0.4181266,0.088351 0.078408,0.053442 0.1356088,0.169149 0.1356088,0.277381 -9.25e-5,0.189043 -0.1018267,0.250198 -0.2198504,0.279436 0.1890028,0.03104 0.2616409,0.149669 0.2712172,0.311283 0,0.110527 -0.062302,0.231908 -0.1520463,0.295874 -0.089473,0.06316 -0.2445986,0.102734 -0.4150442,0.102734 H 6.0645594 Z m 1.8861927,0 0.2814905,1.1e-6 v 1.1249349 h 0.7848859 v 0.230124 H 7.9507521 Z m 1.4773116,0 0.281491,1.1e-6 v 1.3550589 h -0.281491 z m 0.7828323,0 0.332857,1.1e-6 0.777695,1.0088459 h -3e-6 l 3e-6,-1.0088459 h 0.280463 l -7e-6,1.3550589 h -0.332858 l -0.777695,-1.009873 v 0 1.009873 h -0.280455 z m -7.6659962,0.230124 v 0.894811 h 0.3256663 c 0.1821854,0 0.2983392,-0.02935 0.3986069,-0.104788 0.1010787,-0.07611 0.1345811,-0.167828 0.1345811,-0.343131 0,-0.161944 -0.031297,-0.252591 -0.1222528,-0.334912 -0.091228,-0.08246 -0.2249957,-0.11198 -0.4581928,-0.11198 z m 3.8011501,0 2.63e-5,0.305117 h 0.4968804 c 0.1371359,-0.0022 0.1924013,-0.0817 0.1842431,-0.14999 6.838e-4,-0.158591 -0.1523082,-0.145832 -0.2712419,-0.155127 z m 0,0.535243 v 0.359568 h 0.434564 c 0.2026435,-0.0051 0.2814678,-0.05356 0.2835455,-0.176702 -7.89e-4,-0.152149 -0.1387496,-0.184119 -0.2958733,-0.182866 z"
       sodipodi:nodetypes="cccccccccccsscccccssscccccscscsscccccscsscsscccccccscsscscccccccscsccccscccssssscsscscscsccccscscsccscscsccscccccscccccccccccccccccccccccccccccscscsccccccccccccc" /><path
       id="path29901"
       style="fill:#000000;fill-opacity:0;fill-rule:nonzero;stroke:none;stroke-width:0.18556"
       d="m 9.2651855,3.3576251 h -0.03156 L 8.9934118,5.1510123 H 12.013113 L 12.002977,5.0336029 H 9.1209267 L 9.2651913,3.3576247" /><path
       id="path29903"
       style="fill:#ffffff;fill-opacity:1;fill-rule:nonzero;stroke:none;stroke-width:0.18556"
       d="m 11.348046,2.5197034 v 0.322132 h -0.523885 v -0.322132 c 0,-0.035764 -0.02942,-0.064778 -0.06559,-0.064778 h -0.393255 c -0.03577,0 -0.06545,0.029016 -0.06545,0.064778 v 0.322132 H 9.7759807 V 2.5210526 c 0,-0.04143 -0.016716,-0.066127 -0.05506,-0.066127 H 9.3174144 c -0.036036,0 -0.065587,0.029016 -0.065587,0.064778 v 0.322132 H 9.0554679 c -0.036304,0 -0.065587,0.029016 -0.065587,0.064507 v 0.1286098 c 0,0.035898 0.029303,0.064777 0.065587,0.064777 h 0.065453 v 0.1932525 c 0,0.035625 0.029266,0.064643 0.065587,0.064643 h 0.078677 L 9.1209209,5.0336034 H 12.003243 L 11.858978,3.3576251 h 0.07881 c 0.03604,0 0.06545,-0.029016 0.06545,-0.064643 V 3.0997299 h 0.06545 c 0.03615,0 0.06545,-0.028878 0.06545,-0.064777 v -0.12861 c 0,-0.035492 -0.02927,-0.064507 -0.06545,-0.064507 h -0.196494 v -0.322132 c 0,-0.035764 -0.02942,-0.064778 -0.06572,-0.064778 H 11.41957 c -0.06396,0 -0.07152,0.03104 -0.07152,0.064778 z M 10.29987,4.5049933 V 3.8605937 c 0,-0.1425103 0.117272,-0.2582997 0.26221,-0.2582997 0.144808,0 0.262081,0.1157894 0.262081,0.2582997 0,0 0,0 0,4.208e-4 V 4.505009 H 10.29987" /><path
       id="path29905"
       style="fill:#ffffff;fill-opacity:1;fill-rule:nonzero;stroke:none;stroke-width:0.18556"
       d="m 11.450342,1.8300945 c -0.08448,-0.097436 -0.02349,-0.2636978 0.0065,-0.2986504 -0.12969,0.035359 -0.260864,0.087719 -0.324561,0.1816465 C 11.119164,1.6093119 11.102405,1.4802969 10.955862,1.3163293 10.717534,1.0503374 10.911326,0.85937941 10.97151,0.79014868 10.422254,0.93967601 10.140607,1.4844804 10.247218,1.8626183 10.226178,1.8124156 10.182981,1.7699055 10.150052,1.7120111 10.016047,1.4759784 10.117651,1.3789474 10.14495,1.3028339 9.6214659,1.582996 9.4487285,2.0516869 9.7282144,2.2989204 c 0,0 0.091497,0.098516 0.23536,0.098516 0.1869066,-0.011335 0.3635616,-0.2492579 0.3024276,-0.479622 0.0664,0.1654519 0.207288,0.3160592 0.459381,0.3191631 0.109713,-0.00688 0.245611,-0.1126854 0.319565,-0.2278003 -0.01431,0.1300945 0.09379,0.3789474 0.340352,0.2882594 0.136301,-0.069366 0.218624,-0.2902834 0.06505,-0.4673417 z M 9.9464264,2.2070174 c -0.1035083,0 -0.1770564,-0.1269902 -0.1136306,-0.2538461 0.036841,-0.060189 0.1136306,-0.097031 0.08691,-0.2973008 0.09015,0.1302296 0.1260482,0.2107963 0.1336032,0.2304992 0.05007,0.1267209 0.05007,0.3071528 -0.1068826,0.3206477 z M 10.673821,2.0144402 c -0.307825,-0.032658 -0.170442,-0.6819163 0.04251,-0.7920379 -0.01553,0.033874 -0.04089,0.2412953 0.02579,0.368556 0.117949,0.2248314 0.09217,0.4018892 -0.06829,0.4234819 z m 0.621056,0.1134952 c -0.105131,-0.012279 -0.133604,-0.2603241 0.01362,-0.3700406 -0.0084,0.018894 -0.0189,0.1039137 0.01025,0.1611337 0.06167,0.1198378 0.03102,0.2021593 -0.02387,0.2089069" /><path
       id="path29907"
       style="fill:#000000;fill-opacity:0;fill-rule:nonzero;stroke:none;stroke-width:0.18556"
       d="M 5.1736862,3.5636977 H 5.145761 L 4.933346,5.1510123 H 7.6056786 L 7.596763,5.0470984 H 5.0461556 L 5.1736841,3.5636973" /><path
       id="path29909"
       style="fill:#ffffff;fill-opacity:1;fill-rule:nonzero;stroke:none;stroke-width:0.18556"
       d="M 7.0171432,2.8222672 V 3.1072874 H 6.5535815 V 2.8222672 c 0,-0.031579 -0.026168,-0.057355 -0.058032,-0.057355 H 6.147374 c -0.031712,0 -0.05776,0.025776 -0.05776,0.057355 v 0.2850202 h -0.4637 V 2.8234818 c 0,-0.036705 -0.014996,-0.058569 -0.048718,-0.058569 H 5.2201107 c -0.031981,0 -0.058166,0.025776 -0.058166,0.057355 v 0.2850196 h -0.173682 c -0.032133,0 -0.058166,0.025776 -0.058166,0.05722 v 0.1139 c 0,0.031577 0.026053,0.057085 0.058166,0.057085 h 0.057894 v 0.171255 c 0,0.031445 0.0259,0.05695 0.058028,0.05695 h 0.069502 L 5.0461577,5.047099 H 7.5970333 L 7.4693707,3.5636977 h 0.069768 c 0.031865,0 0.057894,-0.025504 0.057894,-0.05695 v -0.171255 h 0.058032 c 0.032133,0 0.057894,-0.025504 0.057894,-0.057085 v -0.1139 c 0,-0.031445 -0.025784,-0.05722 -0.057894,-0.05722 H 7.481111 V 2.8222672 c 0,-0.031579 -0.026053,-0.057355 -0.058166,-0.057355 H 7.080301 c -0.05641,0 -0.063158,0.027532 -0.063158,0.057355 z M 6.0896137,4.5792174 V 4.008907 c 0,-0.1260458 0.1037761,-0.2284752 0.2319821,-0.2284752 0.1280713,0 0.2319857,0.1024294 0.2319857,0.2284752 0,0 0,0 0,4.208e-4 V 4.5792331 H 6.0896137" /><path
       id="path29911"
       style="fill:#ffffff;fill-opacity:1;fill-rule:nonzero;stroke:none;stroke-width:0.18556"
       d="M 7.1379237,2.1707152 C 7.0585728,2.0441298 7.0989263,1.9182187 7.1253786,1.8873146 c -0.1148472,0.031307 -0.2438601,0.1500675 -0.300136,0.233468 -0.016716,-0.091768 0,-0.1668014 -0.155198,-0.3634275 C 6.4744999,1.509177 6.6306369,1.3529016 6.6839309,1.2916331 6.1978297,1.4240217 6.1039035,1.7330636 6.0330527,2.0956817 6.0144219,2.0511471 5.9920302,2.0063429 5.9496549,1.9373818 c -0.045751,-0.075033 -0.04157,-0.1751685 0,-0.2585694 -0.4632945,0.2479083 -0.5877207,0.6754387 -0.366802,0.9296896 0,0 0.062618,0.091768 0.2209151,0.087449 0.1653198,-0.010122 0.3167344,-0.179487 0.2626198,-0.3834005 0.058839,0.1464237 0.1765167,0.256815 0.3997309,0.2593792 0.097028,-0.00594 0.2172731,-0.099595 0.282726,-0.2014848 -0.012703,0.1151149 0.099323,0.3071528 0.2805653,0.263023 0.1502016,-0.041701 0.2627534,-0.2167341 0.1085005,-0.4627531 z m -1.344127,0.3209179 c -0.083808,0 -0.1434536,-0.1029692 -0.09204,-0.2058029 0.02984,-0.048718 0.09204,-0.078408 0.070446,-0.240891 0.073146,0.1055334 0.102024,0.1708503 0.1080987,0.1867749 0.040754,0.1028337 0.040754,0.2489878 -0.086505,0.259919 z M 6.4288834,2.3851553 c -0.262482,-0.022536 -0.202025,-0.517409 0.00555,-0.7213225 -0.013618,0.030094 0.00342,0.2267207 0.064241,0.3246962 0.09811,0.1585695 0.0973,0.3906884 -0.069772,0.3966263 z m 0.5680157,0.061808 c -0.096627,-0.011335 -0.1228076,-0.2391363 0.01255,-0.339811 -0.00796,0.017276 -0.017558,0.095277 0.00945,0.1477734 0.056816,0.1102563 0.028346,0.18583 -0.021997,0.1920376" /><path
       id="path29913"
       style="fill:#000000;fill-opacity:0;fill-rule:nonzero;stroke:none;stroke-width:0.18556"
       d="m 1.7188957,3.9419703 h -0.021308 l -0.1618082,1.209042 h 2.0357652 l -0.00673,-0.079082 H 1.6216262 l 0.0973,-1.1299599" /><path
       id="path29915"
       style="fill:#ffffff;fill-opacity:1;fill-rule:nonzero;stroke:none;stroke-width:0.18556"
       d="M 3.1232156,3.3770583 V 3.5941971 H 2.7699103 V 3.3770583 c 0,-0.024157 -0.019704,-0.043724 -0.044131,-0.043724 H 2.4605962 c -0.024175,0 -0.043994,0.019567 -0.043994,0.043724 V 3.5941971 H 2.0634295 V 3.3780028 c 0,-0.028071 -0.011477,-0.044669 -0.037109,-0.044669 H 1.7541212 c -0.024291,0 -0.044263,0.019567 -0.044263,0.043725 v 0.217139 h -0.13239 c -0.02429,0 -0.044263,0.019567 -0.044263,0.04359 v 0.08664 c 0,0.024158 0.019967,0.04359 0.044263,0.04359 h 0.044131 v 0.1303643 c 0,0.02402 0.019856,0.04359 0.044263,0.04359 h 0.053036 l -0.0973,1.1299591 H 3.564918 L 3.4676196,3.9419703 h 0.05317 c 0.024291,0 0.044131,-0.019567 0.044131,-0.04359 v -0.130364 h 0.044131 c 0.024443,0 0.044131,-0.019433 0.044131,-0.04359 v -0.08664 c 0,-0.02402 -0.019704,-0.04359 -0.044131,-0.04359 H 3.4765252 v -0.217138 c 0,-0.024157 -0.019856,-0.043724 -0.044263,-0.043724 H 3.171265 c -0.042916,0 -0.048045,0.020917 -0.048045,0.043724 z M 2.4166007,4.7153848 V 4.2809717 c 0,-0.095951 0.078949,-0.1739539 0.1767887,-0.1739539 0.097438,0 0.1765209,0.078002 0.1765209,0.1739539 0,0 0,0 0,2.701e-4 v 0.434143 H 2.4166007" /><path
       id="path29917"
       style="fill:#ffffff;fill-opacity:1;fill-rule:nonzero;stroke:none;stroke-width:0.18556"
       d="M 3.2121496,2.8730097 C 3.1466962,2.7824563 3.1968852,2.6701756 3.2171466,2.646559 3.0909647,2.6746298 3.0121535,2.7751689 2.9692395,2.8385964 2.9755883,2.7372469 2.9151249,2.646559 2.8587112,2.5657222 2.7210609,2.3681512 2.8287609,2.2576249 2.8693837,2.2110663 2.4989403,2.311741 2.3564314,2.5862349 2.3715459,2.8680163 2.3573913,2.834008 2.3370037,2.8194331 2.321208,2.7774629 2.2608846,2.6164642 2.3231016,2.5418354 2.3413274,2.4905536 1.8984153,2.691903 1.8258082,3.0435898 2.0142035,3.2102562 c 0,0 0.070579,0.080567 0.1913635,0.065452 0.12591,-0.00769 0.2294189,-0.149123 0.1881229,-0.3044534 0.044804,0.1114706 0.1396785,0.2129552 0.3097186,0.2151146 0.073954,-0.00472 0.1665291,-0.021323 0.2153837,-0.1535762 -0.00956,0.087719 0.1573551,0.2932525 0.2983797,0.137247 0.070312,-0.08556 0.066127,-0.1982456 -0.005,-0.2970309 z M 2.1734181,3.1219974 c -0.064508,0 -0.1102563,-0.079217 -0.070717,-0.1582997 0.022797,-0.037516 0.070717,-0.060459 0.05398,-0.1852899 0.056414,0.081106 0.078678,0.1313088 0.083402,0.1435895 0.031176,0.079217 0.031176,0.1916331 -0.066666,0.2000001 z M 2.6723389,2.9750339 C 2.4882626,2.9554669 2.5705821,2.5673415 2.6977025,2.5014848 c -0.00918,0.020244 -0.024443,0.1442643 0.015533,0.2203778 0.070446,0.1345477 0.05506,0.2402157 -0.040891,0.2531713 z m 0.4329282,0.1148448 c -0.076383,-0.00891 -0.097032,-0.1887988 0.00987,-0.2684209 -0.0062,0.013764 -0.013886,0.075304 0.00742,0.1168688 0.04481,0.086909 0.022418,0.1466937 -0.017289,0.1515521" /><path
       style="color:#000000;fill:#ffffff;-inkscape-stroke:none"
       d="m 255.50586,46.808594 c -6.2844,-0.06147 -20.35344,0.645958 -32.5293,7.222656 h -0.25781 v 0.324219 l -0.01,8.091797 H 259.125 l 0.01,-15.486329 -0.29883,-0.02539 c 0,0 -1.23045,-0.106415 -3.33008,-0.126953 z m -0.0293,0.654297 c 1.89452,0.01653 2.80758,0.09386 3.00586,0.109375 l -0.01,14.222656 h -35.11133 l 0.01,-7.230469 c 11.98875,-6.443863 25.88571,-7.155849 32.10547,-7.101562 z"
       id="path29919"
       transform="matrix(0.38254329,0,0,0.38254329,-85.23009,-17.939678)" /><path
       style="color:#000000;fill:#ffffff;-inkscape-stroke:none"
       d="m 258.43555,77.646484 c 0,8.76047 -4.68039,17.780284 -16.22266,21.027344 -0.0151,0.0035 -0.73891,0.169922 -1.125,0.169922 -0.39262,0 -1.07812,-0.171875 -1.07812,-0.171875 -11.55694,-3.253546 -16.64844,-11.237309 -16.64844,-20.867188 h -0.65039 c 0,9.864277 5.3436,18.181215 17.12695,21.496094 l 0.002,0.002 h 0.004 c 0,0 0.68496,0.19336 1.24414,0.19336 0.55744,0 1.29297,-0.191407 1.29297,-0.191407 l 0.004,-0.002 0.006,-0.002 c 11.80243,-3.320245 16.69727,-12.659478 16.69727,-21.654297 z"
       id="path29921"
       transform="matrix(0.38254329,0,0,0.38254329,-85.23009,-17.939678)" /></g></svg>
